SplineFontDB: 3.0
FontName: GoudyTitle18
FullName: Goudy Title 18pt
FamilyName: GoudyTitle18
Weight: Medium
Copyright: Copyright (c) 2009 Barry Schwartz\n\nPermission is hereby granted, free of charge, to any person obtaining a copy\nof this software and associated documentation files (the "Software"), to deal\nin the Software without restriction, including without limitation the rights\nto use, copy, modify, merge, publish, distribute, sublicense, and/or sell\ncopies of the Software, and to permit persons to whom the Software is\nfurnished to do so, subject to the following conditions:\n\nThe above copyright notice and this permission notice shall be included in\nall copies or substantial portions of the Software.\n\nTHE SOFTWARE IS PROVIDED "AS IS", WITHOUT WARRANTY OF ANY KIND, EXPRESS OR\nIMPLIED, INCLUDING BUT NOT LIMITED TO THE WARRANTIES OF MERCHANTABILITY,\nFITNESS FOR A PARTICULAR PURPOSE AND NONINFRINGEMENT. IN NO EVENT SHALL THE\nAUTHORS OR COPYRIGHT HOLDERS BE LIABLE FOR ANY CLAIM, DAMAGES OR OTHER\nLIABILITY, WHETHER IN AN ACTION OF CONTRACT, TORT OR OTHERWISE, ARISING FROM,\nOUT OF OR IN CONNECTION WITH THE SOFTWARE OR THE USE OR OTHER DEALINGS IN\nTHE SOFTWARE.\n
UComments: "2009-6-24: Created." 
Version: 001.000
ItalicAngle: 0
UnderlinePosition: -203
UnderlineWidth: 101
Ascent: 1591
Descent: 457
LayerCount: 3
Layer: 0 0 "Back"  1
Layer: 1 0 "Fore"  0
Layer: 2 0 "backup"  1
XUID: [1021 658 797806517 2347079]
FSType: 0
OS2Version: 0
OS2_WeightWidthSlopeOnly: 0
OS2_UseTypoMetrics: 1
CreationTime: 1245830276
ModificationTime: 1248130754
PfmFamily: 17
TTFWeight: 500
TTFWidth: 5
LineGap: 184
VLineGap: 0
OS2TypoAscent: 0
OS2TypoAOffset: 1
OS2TypoDescent: 0
OS2TypoDOffset: 1
OS2TypoLinegap: 184
OS2WinAscent: 0
OS2WinAOffset: 1
OS2WinDescent: 0
OS2WinDOffset: 1
HheadAscent: 0
HheadAOffset: 1
HheadDescent: 0
HheadDOffset: 1
OS2Vendor: 'PfEd'
Lookup: 260 0 0 "spacing anchors"  {"spacing anchors-1"  } []
DEI: 91125
LangName: 1033 
PickledData: "(dp1

StartChar: A
Encoding: 65 65 27
Width: 1711
VWidth: 2043
Flags: HMW
PickledData: "(dp1
S'spacing_anchors_slanted'
p2
I00
s."
HStem: -9 65<80.6237 164.979> 545 108<599.204 1036.49> 1462 20G<869 907>
AnchorPoint: "l;bl" 0 40 basechar 0
AnchorPoint: "l;o" 100 450 basechar 0
AnchorPoint: "l;hi" 310 1500 basechar 0
AnchorPoint: "l;t" 240 1150 basechar 0
AnchorPoint: "l;x" 170 850 basechar 0
AnchorPoint: "r;bl" 1753 40 basechar 0
AnchorPoint: "r;o" 1653 450 basechar 0
AnchorPoint: "r;hi" 1443 1500 basechar 0
AnchorPoint: "r;t" 1513 1150 basechar 0
AnchorPoint: "r;x" 1583 850 basechar 0
LayerCount: 3
Fore
SplineSet
1473 7 m 0
 1318 7 1176 -10 1150 -10 c 0
 1105 -10 1088 -1 1088 23 c 0
 1088 68 1231 39 1231 150 c 0
 1231 215 1152 407 1116 486 c 0
 1108 504 1098 537 1030 537 c 2
 588 537 l 2
 541 537 513 531 490 482 c 0
 417 327 386 232 386 175 c 0
 386 54 574 77 617 61 c 0
 634 55 645 46 645 30 c 0
 645 14 643 -4 611 -4 c 0
 579 -4 387 13 316 13 c 0
 229 13 174 -2 126 -2 c 0
 89 -2 42 13 42 41 c 0
 42 80 103 76 130 83 c 0
 214 105 275 242 313 339 c 0
 366 472 533 849 541 867 c 2
 830 1490 l 2
 849 1530 860 1537 884 1537 c 0
 928 1537 934 1479 1072 1151 c 0
 1172 914 1469 241 1485 209 c 0
 1525 128 1555 83 1657 72 c 0
 1691 68 1722 69 1722 23 c 0
 1722 12 1713 -9 1678 -9 c 0
 1631 -9 1531 7 1473 7 c 0
567 682 m 0
 567 650 595 648 699 648 c 2
 954 648 l 2
 1042 648 1045 650 1045 684 c 0
 1045 707 886 1071 835 1159 c 0
 822 1183 813 1197 798 1197 c 0
 776 1197 747 1115 704 1019 c 0
 640 876 567 697 567 682 c 0
EndSplineSet
Validated: 1
EndChar

StartChar: B
Encoding: 66 66 28
Width: 1545
VWidth: 2043
Flags: W
PickledData: "(dp1
S'spacing_anchors_slanted'
p2
I00
s."
HStem: -18 74<592.297 996.832> -5 83<99.8922 269.432> 742 68<543.998 902.833> 1378 107<38.6289 266.992> 1404 86<536.594 862.561>
VStem: 299 219<110.376 737.327 830.876 1353.85> 1086 210<953.112 1219.69> 1188 227<244.85 546.411>
AnchorPoint: "l;bl" -50 40 basechar 0
AnchorPoint: "l;o" -50 450 basechar 0
AnchorPoint: "l;hi" -50 1500 basechar 0
AnchorPoint: "l;t" -50 1150 basechar 0
AnchorPoint: "l;x" -50 850 basechar 0
AnchorPoint: "r;bl" 1430 40 basechar 0
AnchorPoint: "r;o" 1490 450 basechar 0
AnchorPoint: "r;hi" 1430 1500 basechar 0
AnchorPoint: "r;t" 1460 1150 basechar 0
AnchorPoint: "r;x" 1490 850 basechar 0
LayerCount: 3
Fore
SplineSet
34 1440 m 0x75
 34 1475 57 1485 86 1485 c 0x75
 129 1485 147 1465 349 1465 c 0
 437 1465 632 1490 756 1490 c 0
 1089 1490 1296 1343 1296 1116 c 0x2e
 1296 871 1080 826 1080 803 c 0
 1080 778 1415 748 1415 425 c 0
 1415 309 1350 169 1258 105 c 0
 1131 16 1006 -18 866 -18 c 0xad
 724 -18 438 7 386 7 c 0
 227 7 194 -5 146 -5 c 0
 125 -5 99 2 99 29 c 0
 99 72 149 64 200 78 c 0
 291 103 299 170 299 241 c 0
 299 383.4 300 276.6 300 597 c 0
 300 748 306 950 306 1221 c 0
 306 1234 300 1337 225 1378 c 0
 171 1407 34 1374 34 1440 c 0x75
518 188 m 0
 518 96 645 56 808 56 c 0xa5
 1011 56 1188 162 1188 378 c 0
 1188 668 894 742 641 742 c 0
 531 742 518 740 518 622 c 0
 518 477 518 333 518 188 c 0
806 810 m 0
 991 810 1086 859 1086 1056 c 0
 1086 1344 777 1404 662 1404 c 0x2e
 634 1404 528 1402 524 1330 c 0
 522 1300 518 1229 518 1175 c 2
 518 936 l 2
 518 815 559 810 806 810 c 0
EndSplineSet
Validated: 1
EndChar

StartChar: C
Encoding: 67 67 29
Width: 1653
VWidth: 2043
Flags: W
PickledData: "(dp1
S'spacing_anchors_slanted'
p2
I00
s."
HStem: -59 139<710.134 1092.43> 936 462<1286 1446> 1420 88<614.216 1010.76>
VStem: 87 233<532.278 964.241>
AnchorPoint: "r;x" 1623 850 basechar 0
AnchorPoint: "r;t" 1653 1150 basechar 0
AnchorPoint: "r;hi" 1653 1500 basechar 0
AnchorPoint: "r;o" 1593 450 basechar 0
AnchorPoint: "r;bl" 1563 40 basechar 0
AnchorPoint: "l;x" 0 850 basechar 0
AnchorPoint: "l;t" 0 1150 basechar 0
AnchorPoint: "l;hi" 120 1500 basechar 0
AnchorPoint: "l;o" 0 450 basechar 0
AnchorPoint: "l;bl" 120 40 basechar 0
LayerCount: 3
Fore
SplineSet
87 679 m 0
 87 869 128 1017 245 1178 c 0
 361 1338 548 1508 856 1508 c 0
 1139 1508 1256 1398 1316 1398 c 0
 1338 1398 1351 1442 1378 1442 c 0
 1402 1442 1416 1424 1416 1398 c 0
 1416 1213 1468 1088 1468 990 c 0
 1468 957 1455 936 1437 936 c 0
 1372 936 1384 1049 1276 1182 c 0
 1194 1283 1015 1420 822 1420 c 0
 637 1420 464 1324 393 1178 c 0
 344 1078 320 946 320 784 c 0
 320 414 604 80 888 80 c 0
 1092 80 1297 174 1421 304 c 0
 1438 321 1451 324 1458 324 c 0
 1472 324 1484 317 1484 302 c 0
 1484 265 1437 212 1376 159 c 0
 1123 -59 927 -59 831 -59 c 0
 483 -59 87 117 87 679 c 0
EndSplineSet
Validated: 1
EndChar

StartChar: D
Encoding: 68 68 30
Width: 1806
VWidth: 2043
Flags: W
PickledData: "(dp1
S'spacing_anchors_slanted'
p2
I00
s."
HStem: -9 83<606.504 1100.59> 1376 100<48.407 274.947> 1398 88<553.872 1009.5>
VStem: 315 221<134.443 1335.26> 1474 243<510.151 951.265>
AnchorPoint: "r;x" 1823 850 basechar 0
AnchorPoint: "r;t" 1823 1150 basechar 0
AnchorPoint: "r;hi" 1703 1500 basechar 0
AnchorPoint: "r;o" 1823 450 basechar 0
AnchorPoint: "r;bl" 1703 40 basechar 0
AnchorPoint: "l;bl" 0 40 basechar 0
AnchorPoint: "l;o" 0 450 basechar 0
AnchorPoint: "l;hi" 0 1500 basechar 0
AnchorPoint: "l;t" 0 1150 basechar 0
AnchorPoint: "l;x" 0 850 basechar 0
LayerCount: 3
Fore
SplineSet
1288 1414 m 0xb8
 1488 1342 1717 1120 1717 785 c 0
 1717 273 1334 -9 904 -9 c 0
 783 -9 647 6 440 6 c 0
 317 6 240 -8 168 -8 c 0
 126 -8 112 14 112 30 c 0
 112 130 285 -15 306 229 c 0
 313.897460938 320.765625 315 1027 315 1152 c 0
 315 1246 310 1338 213 1376 c 0
 120 1413 43 1381 43 1442 c 0
 43 1467 57 1476 102 1476 c 0xd8
 138 1476 108 1468 380 1468 c 0
 532 1468 661 1486 813 1486 c 0
 960 1486 1133 1470 1288 1414 c 0xb8
1474 678 m 0
 1474 995 1319 1398 701 1398 c 0xb8
 636 1398 590 1390 576 1382 c 0
 542 1362 536 1319 536 1245 c 2
 536 704 l 2
 536 505 533 366 533 272 c 0
 533 199 556 157 581 133 c 0
 629 86 765 74 804 74 c 0
 1059 74 1474 142 1474 678 c 0
EndSplineSet
Validated: 1
EndChar

StartChar: E
Encoding: 69 69 31
Width: 1445
Flags: W
PickledData: "(dp1
S'spacing_anchors_slanted'
p2
I00
s."
HStem: -14 100<118.389 281.618> 15 75<568.074 876.877> 730 105<533.907 937.431> 1367 105<532.216 1069.98> 1402 84<40.3211 258.81>
VStem: 316 214<121.918 728.627 836.641 1347.63> 989 89<514.325 690.524 886.712 1033.39> 1146 72<1133.46 1291.71>
AnchorPoint: "l;bl" 0 40 basechar 0
AnchorPoint: "l;o" 0 450 basechar 0
AnchorPoint: "l;hi" 0 1500 basechar 0
AnchorPoint: "l;t" 0 1150 basechar 0
AnchorPoint: "l;x" 0 850 basechar 0
AnchorPoint: "r;bl" 1437 40 basechar 0
AnchorPoint: "r;o" 1437 450 basechar 0
AnchorPoint: "r;hi" 1437 1500 basechar 0
AnchorPoint: "r;t" 1437 1150 basechar 0
AnchorPoint: "r;x" 1437 850 basechar 0
LayerCount: 3
Fore
SplineSet
312 1473 m 0xaf
 769 1473 712 1472 883 1472 c 0
 1089 1472 1148 1483 1177 1483 c 0
 1190 1483 1205 1477 1205 1445 c 0
 1205 1436 1204 1391 1204 1355 c 0
 1204 1294 1218 1261 1218 1212 c 0
 1218 1187 1210 1133 1178 1133 c 0
 1146 1133 1147 1173 1146 1202 c 0
 1140 1364 931 1367 715 1367 c 2
 689 1367 l 2
 535 1367 524 1357 524 1237 c 0
 524 1210 525 1148 525 1056 c 0
 525 1010 525 956 524 895 c 0
 524 840 550 835 619 835 c 2
 706 835 l 2
 951 835 958 891 990 967 c 0
 1006 1005 1020 1035 1041 1035 c 0
 1063 1035 1069 1016 1069 992 c 0
 1069 955 1058 914 1058 817 c 0
 1058 792 1078 628 1078 565 c 0
 1078 515 1050 512 1044 512 c 0
 997 512 1000 605 989 637 c 0
 961 725 840 730 708 730 c 2
 587 730 l 2
 544 730 530 690 530 658 c 2
 530 281 l 2
 530 214 546 137 578 119 c 0
 621 95 655 90 750 90 c 0
 1244 90 1265 308 1312 308 c 0
 1324 308 1330 295 1330 277 c 0
 1330 165 1178 -30 1080 -30 c 0
 818 -30 622 15 498 15 c 0x77
 386 15 275 -14 175 -14 c 0
 138 -14 116 5 116 27 c 0
 116 72 169 71 226 86 c 0
 293 104 316 172 316 348 c 2
 316 1193 l 2
 316 1405 184 1399 97 1402 c 0
 64 1403 40 1429 40 1447 c 0
 40 1486 90 1486 108 1486 c 0
 150 1486 205 1473 312 1473 c 0xaf
EndSplineSet
Validated: 1
EndChar

StartChar: F
Encoding: 70 70 32
Width: 1317
VWidth: 2053
Flags: W
PickledData: "(dp1
S'spacing_anchors_slanted'
p2
I00
s."
HStem: -15 98<109.047 271.823> 724 107<524.641 928.782> 1368 99<540.58 1051.18> 1398 88<36.1608 249.299>
VStem: 314 207<140.29 722.366 832.697 1336.94> 954 116<532.825 697.594> 987 73<896.302 1032.45> 1134 76<1131.03 1296.19>
AnchorPoint: "l;bl" 0 40 basechar 0
AnchorPoint: "l;o" 0 450 basechar 0
AnchorPoint: "l;hi" 0 1500 basechar 0
AnchorPoint: "l;t" 0 1150 basechar 0
AnchorPoint: "l;x" 0 850 basechar 0
AnchorPoint: "r;bl" 1214 40 basechar 0
AnchorPoint: "r;o" 1304 450 basechar 0
AnchorPoint: "r;hi" 1334 1500 basechar 0
AnchorPoint: "r;t" 1334 1150 basechar 0
AnchorPoint: "r;x" 1304 850 basechar 0
LayerCount: 3
Fore
SplineSet
663 1368 m 0xed
 530 1368 521 1364 521 1216 c 2
 521 904 l 2
 521 837 531 831 608 831 c 0
 917 831 950 859 987 974 c 0
 991 988 995 1034 1034 1034 c 0
 1053 1034 1060 1012 1060 988 c 0xeb
 1060 951 1056 844 1056 773 c 0
 1056 658 1070 569 1070 547 c 0
 1070 526 1065 500 1038 500 c 0
 977 500 1005 599 954 667 c 0
 913 722 792 724 593 724 c 0
 556 724 524 720 524 670 c 0
 524 578 521 530 521 444 c 2
 521 370 l 2
 521 246 529 136 631 80 c 0
 707 39 834 75 834 17 c 0
 834 6 834 -23 771 -23 c 0
 708 -23 518 10 413 10 c 0
 246 10 257 -15 157 -15 c 0
 122 -15 106 1 106 23 c 0
 106 68 172 74 206 83 c 0
 287 104 314 188 314 258 c 2
 314 1142 l 2
 314 1249 297 1392 149 1398 c 0
 98 1400 35 1408 35 1451 c 0
 35 1475 68 1486 116 1486 c 0xdd
 173 1486 196 1467 712 1467 c 0
 1134 1467 1073 1477 1154 1477 c 0
 1170 1477 1205 1467 1205 1425 c 0
 1205 1407 1204 1389 1204 1361 c 0
 1204 1278 1210 1210 1210 1197 c 0
 1210 1162 1194 1131 1171 1131 c 0
 1142 1131 1140 1171 1134 1216 c 0
 1130 1250 1124 1284 1073 1313 c 0
 1001 1354 870 1368 663 1368 c 0xed
EndSplineSet
Validated: 1
EndChar

StartChar: G
Encoding: 71 71 33
Width: 1675
Flags: W
PickledData: "(dp1
S'spacing_anchors_slanted'
p2
I00
s."
HStem: -55 98<672.16 1030.26> 580 95<994.485 1233.67> 603 75<1477.04 1610.98> 984 418<1297.5 1427.75> 1426 20G<1372 1396.5> 1447 79<633.543 1031.02>
VStem: 94 233<483.118 961.8> 1258 204<180.787 562.73>
AnchorPoint: "l;x" 0 855 basechar 0
AnchorPoint: "l;t" 0 1155 basechar 0
AnchorPoint: "l;hi" 120 1505 basechar 0
AnchorPoint: "l;o" 0 455 basechar 0
AnchorPoint: "l;bl" 120 45 basechar 0
AnchorPoint: "r;bl" 1675 45 basechar 0
AnchorPoint: "r;o" 1675 455 basechar 0
AnchorPoint: "r;hi" 1675 1505 basechar 0
AnchorPoint: "r;t" 1675 1155 basechar 0
AnchorPoint: "r;x" 1675 855 basechar 0
LayerCount: 3
Fore
SplineSet
1392 1446 m 0xbf
 1401 1446 1429 1438 1429 1401 c 0
 1429 1259 1454 1089 1454 1027 c 0
 1454 994 1434 984 1426 984 c 0
 1380 984 1365 1085 1335 1149 c 0
 1262 1308 1046 1447 843 1447 c 0
 637 1447 327 1359 327 788 c 0
 327 351 568 43 849 43 c 0
 946 43 1037 75 1106 109 c 0
 1193 152 1222 161 1246 263 c 0
 1253 293 1258 327 1258 359 c 2
 1258 431 l 2
 1258 507 1229 563 1189 580 c 0
 1130 605 991 569 991 641 c 0
 991 668 1010 675 1054 675 c 0xdf
 1128 675 1290 660 1349 660 c 0
 1460 660 1533 678 1574 678 c 0
 1594 678 1612 672 1612 649 c 0
 1612 605 1555 620 1514 603 c 0
 1466 583 1462 529 1462 455 c 2
 1462 414 l 2
 1462 260 1466 245 1466 226 c 0
 1466 169 1435 182 1214 78 c 0
 1098 23 986 -55 814 -55 c 0
 360 -55 94 224 94 679 c 0
 94 1184 442 1526 830 1526 c 0
 1112 1526 1276 1402 1319 1402 c 0
 1355 1402 1352 1446 1392 1446 c 0xbf
EndSplineSet
Validated: 1
EndChar

StartChar: H
Encoding: 72 72 34
Width: 1899
VWidth: 0
Flags: W
PickledData: "(dp1
S'spacing_anchors_slanted'
p2
I00
s."
HStem: -8 79<614.685 857.644 1597.19 1823.96> -4 95<1130.14 1278.69> 711 140<546.794 1294.68> 1396 98<1561.65 1731.85> 1408 86<43.0644 263.726 608.939 766.794 1015.05 1214.39>
VStem: 321 224<132.056 711 852.524 1341.15> 1298 227<134.25 711 852.323 1333.15>
AnchorPoint: "l;bl" 0 40 basechar 0
AnchorPoint: "l;o" 0 450 basechar 0
AnchorPoint: "l;hi" 0 1500 basechar 0
AnchorPoint: "l;t" 0 1150 basechar 0
AnchorPoint: "l;x" 0 850 basechar 0
AnchorPoint: "r;bl" 1969 40 basechar 0
AnchorPoint: "r;o" 1969 450 basechar 0
AnchorPoint: "r;hi" 1969 1500 basechar 0
AnchorPoint: "r;t" 1969 1150 basechar 0
AnchorPoint: "r;x" 1969 850 basechar 0
LayerCount: 3
Fore
SplineSet
117 42 m 0xa6
 117 136 321 -11 321 290 c 0
 321 579 327 792 327 1204 c 0
 327 1280 315 1302 298 1328 c 0
 231 1428 159 1386 80 1408 c 0
 49 1417 43 1445 43 1452 c 0
 43 1474 65 1493 108 1493 c 0
 162 1493 202 1473 378 1473 c 0
 525 1473 635 1497 701 1497 c 0
 733 1497 768 1488 768 1460 c 0
 768 1425 725 1419 703 1412 c 0
 616 1384 546 1381 546 1069 c 2
 546 924 l 2
 546 852 550 851 652 851 c 2
 1217 851 l 2
 1290 851 1297 856 1297 950 c 2
 1297 1169 l 2
 1297 1216 1296 1258 1285 1285 c 0
 1256 1358 1171 1399 1106 1408 c 0
 1060 1414 1015 1411 1015 1450 c 0
 1015 1492 1080 1494 1128 1494 c 0xae
 1200 1494 1244 1470 1396 1470 c 0
 1532 1470 1598 1494 1675 1494 c 0
 1711 1494 1735 1476 1735 1456 c 0
 1735 1404 1664 1415 1615 1396 c 0
 1573 1380 1525 1348 1525 1164 c 2
 1525 460 l 2
 1525 434 1524 410 1524 386 c 0
 1524 113 1565 91 1750 76 c 0
 1769 75 1824 76 1824 30 c 0
 1824 10 1814 -8 1751 -8 c 0xb6
 1709 -8 1552 11 1422 11 c 0
 1319 11 1244 -4 1201 -4 c 0
 1148 -4 1127 4 1127 31 c 0
 1127 74 1183 73 1230 91 c 0x66
 1252 99 1298 111 1298 263 c 2
 1298 678 l 2
 1298 706 1281 711 1262 711 c 2
 584 711 l 2
 548 711 545 696 545 625 c 2
 545 366 l 2
 545 226 547 71 738 71 c 0
 751 71 774 72 810 72 c 0
 830 72 858 58 858 36 c 0
 858 4 827 -8 793 -8 c 0
 683 -8 507 7 458 7 c 0
 368 7 269 -5 196 -5 c 0
 156 -5 117 7 117 42 c 0xa6
EndSplineSet
Validated: 1
EndChar

StartChar: I
Encoding: 73 73 35
Width: 900
VWidth: 5
Flags: W
PickledData: "(dp1
S'spacing_anchors_slanted'
p2
I00
s."
HStem: -16 88<611.288 865.394> 1401 93<607.102 770.776> 1474 20G<87.5 141>
VStem: 336 222<124.987 1348.34>
AnchorPoint: "l;bl" 0 40 basechar 0
AnchorPoint: "l;o" 0 450 basechar 0
AnchorPoint: "l;hi" 0 1500 basechar 0
AnchorPoint: "l;t" 0 1150 basechar 0
AnchorPoint: "l;x" 0 850 basechar 0
AnchorPoint: "r;bl" 1072 40 basechar 0
AnchorPoint: "r;o" 1072 450 basechar 0
AnchorPoint: "r;hi" 1072 1500 basechar 0
AnchorPoint: "r;t" 1072 1150 basechar 0
AnchorPoint: "r;x" 1072 850 basechar 0
LayerCount: 3
Fore
SplineSet
716 1494 m 0xd0
 736 1494 772 1486 772 1454 c 0
 772 1424 733 1413 692 1401 c 0xd0
 607 1374 558 1356 558 1114 c 2
 558 369 l 2
 558 125 594 72 770 72 c 2
 789 72 l 2
 839 72 866 66 866 34 c 0
 866 2 832 -16 798 -16 c 0
 688 -16 555 8 487 8 c 0
 380 8 263 -12 190 -12 c 0
 132 -12 132 13 132 30 c 0
 132 84 227 58 293 117 c 0
 313 135 336 156 336 247 c 2
 336 1231 l 2
 336 1475 48 1342 48 1446 c 0
 48 1460 63 1494 112 1494 c 0xb0
 170 1494 214 1468 434 1468 c 0
 556 1468 691 1494 716 1494 c 0xd0
EndSplineSet
Validated: 1
EndChar

StartChar: J
Encoding: 74 74 36
Width: 1010
VWidth: 5
Flags: W
PickledData: "(dp1
S'spacing_anchors_slanted'
p2
I00
s."
HStem: -118 135<115 343.546> 1412 79<129.088 343.002 654.752 794.704>
VStem: 43 159<39.9395 168.218> 390 225<222.753 1372.11>
AnchorPoint: "l;bl" -70 40 basechar 0
AnchorPoint: "l;k;lo" -233 -420 basechar 0
AnchorPoint: "l;o" -40 450 basechar 0
AnchorPoint: "l;hi" -100 1500 basechar 0
AnchorPoint: "l;t" -40 1150 basechar 0
AnchorPoint: "l;x" -40 850 basechar 0
AnchorPoint: "r;bl" 894 40 basechar 0
AnchorPoint: "r;lo" 714 -420 basechar 0
AnchorPoint: "r;o" 894 450 basechar 0
AnchorPoint: "r;hi" 894 1500 basechar 0
AnchorPoint: "r;t" 894 1150 basechar 0
AnchorPoint: "r;x" 894 850 basechar 0
LayerCount: 3
Fore
SplineSet
43 33 m 0
 43 73 64 190 133 190 c 0
 165 190 187 165 202 132 c 0
 225 81 238 17 294 17 c 0
 368 17 390 177 390 432 c 0
 390 572 390 411 390 1111 c 0
 390 1186 389 1241 383 1295 c 0
 372 1402 278 1409 177 1412 c 0
 136 1413 129 1443 129 1453 c 0
 129 1471 142 1491 191 1491 c 0
 249 1491 357 1474 472 1474 c 0
 553 1474 644 1495 735 1495 c 0
 770 1495 797 1494 797 1463 c 0
 797 1441 779 1432 749 1426 c 0
 696 1416 615 1412 615 1174 c 0
 615 1027 615 899 615 787 c 0
 615 644 614 528 605 432 c 0
 596 340 582 226 538 126 c 0
 482 -2 338 -118 157 -118 c 0
 73 -118 43 -58 43 33 c 0
EndSplineSet
Validated: 1
EndChar

StartChar: K
Encoding: 75 75 37
Width: 1897
VWidth: 5
Flags: W
PickledData: "(dp1
S'spacing_anchors_slanted'
p2
I00
s."
HStem: -7 78<615.395 861.879> -5 95<118.61 305.242 1564.09 1810.43> 1410 83<596.963 758.44>
VStem: 334 223<124.06 625.549 738.027 1330.97>
AnchorPoint: "l;bl" 0 40 basechar 0
AnchorPoint: "l;o" 0 450 basechar 0
AnchorPoint: "l;hi" 0 1500 basechar 0
AnchorPoint: "l;t" 0 1150 basechar 0
AnchorPoint: "l;x" 0 850 basechar 0
AnchorPoint: "r;bl" 2068 40 basechar 0
AnchorPoint: "r;o" 1978 450 basechar 0
AnchorPoint: "r;hi" 2027 1500 basechar 0
AnchorPoint: "r;t" 1978 1150 basechar 0
AnchorPoint: "r;x" 1918 850 basechar 0
LayerCount: 3
Fore
SplineSet
1032 1462 m 0xb0
 1032 1484 1054 1493 1068 1493 c 0
 1137 1493 1233 1476 1316 1476 c 0
 1443 1476 1538 1493 1597 1493 c 0
 1661 1493 1668 1474 1668 1460 c 0
 1668 1401 1563 1431 1425 1347 c 0
 1373 1316 1298 1253 1195 1158 c 0
 922 904 922 909 922 882 c 0
 922 845 1089 634 1235 460 c 0
 1452 201 1506 127 1686 90 c 0
 1722 82 1811 87 1811 40 c 0
 1811 -3 1777 -5 1723 -5 c 0
 1694 -5 1606 5 1562 5 c 0
 1522 5 1476 -5 1444 -5 c 0x70
 1334 -5 1298 62 1182 180 c 0
 977 391 772 727 730 727 c 0
 721 727 710 724 678 696 c 2
 619 642 l 2
 568 594 557 586 557 451 c 2
 557 334 l 2
 557 74 644 71 793 71 c 0
 820 71 862 68 862 30 c 0
 862 4 835 -7 801 -7 c 0
 691 -7 610 8 542 8 c 0
 435 8 263 -10 190 -10 c 0
 123 -10 117 20 117 32 c 0
 117 100 208 63 272 97 c 0
 328 127 335 205 335 377 c 0
 335 426 334 483 334 548 c 2
 334 823 l 2
 334 1041 333 1159 324 1230 c 0
 295 1487 48 1352 48 1454 c 0
 48 1468 58 1497 115 1497 c 0
 173 1497 298 1472 413 1472 c 0
 491 1472 647 1493 702 1493 c 0
 731 1493 759 1483 759 1459 c 0
 759 1446 756 1417 692 1410 c 0
 596 1399 560 1380 560 1131 c 0
 560 947 555 856 555 812 c 0
 555 775 556 738 566 738 c 0
 588 738 613 772 676 826 c 0
 758 896 874 1004 975 1098 c 0
 1046.05389223 1163.72485032 1109.39456063 1224.19068438 1149.24467651 1273.99999501 c 0
 1180.45910412 1313.01541784 1189.89257812 1338 1189.89257812 1359.64355469 c 0
 1189.89257812 1428.734375 1032 1409.54233848 1032 1462 c 0xb0
EndSplineSet
Validated: 1
EndChar

StartChar: L
Encoding: 76 76 38
Width: 1445
Flags: W
PickledData: "(dp1
S'spacing_anchors_slanted'
p2
I00
s."
HStem: -18 75<112.019 275.25> 0 84<554.558 852.999> 1463 20G<75.5 92.5> 1463 20G<75.5 92.5 632 673>
VStem: 316 218<99.2544 1326.49>
AnchorPoint: "r;s;dot" 1503 680 basechar 0
AnchorPoint: "l;bl" -200 40 basechar 0
AnchorPoint: "l;o" -200 450 basechar 0
AnchorPoint: "l;hi" -200 1500 basechar 0
AnchorPoint: "l;t" -200 1150 basechar 0
AnchorPoint: "l;x" -200 850 basechar 0
AnchorPoint: "r;bl" 1835 40 basechar 0
AnchorPoint: "r;o" 1835 450 basechar 0
AnchorPoint: "r;hi" 1475 1500 basechar 0
AnchorPoint: "r;t" 1475 1150 basechar 0
AnchorPoint: "r;x" 1475 850 basechar 0
LayerCount: 3
Fore
SplineSet
642 84 m 0x68
 1233.62762049 84 1204.39393787 302 1286 302 c 0
 1298 302 1314 293 1314 268 c 0
 1314 242 1282 137 1235 76 c 0
 1184 10 1098 -32 1022 -32 c 0
 760 -32 598 0 438 0 c 0x68
 292 0 249 -18 174 -18 c 0
 122 -18 112 6 112 20 c 0
 112 43 138 55 149 57 c 0x88
 263 83 316 71 316 227 c 0
 316 555.333333333 316 883.666666667 316 1212 c 0
 316 1459.75664063 27 1361.540625 27 1446 c 0
 27 1477 67 1483 84 1483 c 0
 101 1483 118 1480 139 1480 c 0
 189 1480 309 1462 390 1462 c 0
 501 1462 614 1482 650 1482 c 0
 696 1482 717 1463 717 1446 c 0
 717 1383 610 1406 560 1328 c 0
 540 1297 534 1184 534 1098 c 2
 534 253 l 2
 534 148 545 84 642 84 c 0x68
EndSplineSet
Validated: 1
EndChar

StartChar: M
Encoding: 77 77 39
Width: 1882
VWidth: 5
Flags: W
PickledData: "(dp1
S'spacing_anchors_slanted'
p2
I00
s."
HStem: -6 60<422.922 540.816 1688.47 1841.92> 1392 63<40.0065 155.24 1656.8 1768.99>
VStem: 1449 161<653.75 1047.98> 1478 157<95.2517 781.143>
AnchorPoint: "l;bl" 0 40 basechar 0
AnchorPoint: "l;o" 30 450 basechar 0
AnchorPoint: "l;hi" 0 1500 basechar 0
AnchorPoint: "l;t" 30 1150 basechar 0
AnchorPoint: "l;x" 30 850 basechar 0
AnchorPoint: "r;bl" 1882 40 basechar 0
AnchorPoint: "r;o" 1852 450 basechar 0
AnchorPoint: "r;hi" 1882 1500 basechar 0
AnchorPoint: "r;t" 1852 1150 basechar 0
AnchorPoint: "r;x" 1852 850 basechar 0
LayerCount: 3
Fore
SplineSet
40 1424 m 0xe0
 40 1438 46 1455 77 1455 c 0
 100 1455 169 1445 187 1445 c 0
 243 1445 301 1451 339 1451 c 0
 363 1451 382 1437 389 1421 c 0
 582 1003 910 281 938 281 c 0
 960 281 984 346 1006 393 c 2
 1269 939 l 2
 1487 1391 1467 1374 1480 1399 c 0
 1494 1426 1488 1455 1559 1455 c 0
 1648 1455 1605 1451 1734 1451 c 0
 1749 1451 1769 1451 1769 1424 c 0
 1769 1399 1760 1386 1702 1378 c 0
 1639 1369 1610 1334 1610 1155 c 0xe0
 1610 673 1635 561 1635 373 c 0
 1635 90 1670 55 1804 55 c 0
 1824 55 1842 38 1842 27 c 0
 1842 -5 1830 -7 1796 -7 c 0
 1686 -7 1656 3 1588 3 c 0
 1481 3 1447 -9 1374 -9 c 0
 1341 -9 1338 9 1338 21 c 0
 1338 81 1439 15 1471 154 c 0
 1476 175 1478 222 1478 284 c 0xd0
 1478 516 1449 953 1449 960 c 0
 1449 1018 1443 1048 1432 1048 c 0
 1413 1048 1387 994 1351 920 c 2
 1067 345 l 2
 909 24 921 24 895 24 c 0
 856 24 844 102 787 218 c 0
 402 1001 405 1001 389 1001 c 0
 379 1001 373 981 372 920 c 0
 368 621 355 535 355 379 c 2
 355 287 l 2
 355 179 358 70 513 54 c 0
 526 53 541 41 541 30 c 0
 541 -2 531 -6 509 -6 c 0
 440 -6 324 3 296 3 c 0
 272 3 220 -5 130 -5 c 0
 103 -5 85 -2 85 28 c 0
 85 83 196 3 241 185 c 0
 256 247 281 813 281 1002 c 0
 281 1267 250 1348 68 1392 c 0
 42 1398 40 1414 40 1424 c 0xe0
EndSplineSet
Validated: 1
EndChar

StartChar: N
Encoding: 78 78 40
Width: 1635
VWidth: 5
Flags: W
PickledData: "(dp1
S'spacing_anchors_slanted'
p2
I00
s."
HStem: 1384 66<40.0641 162.938 1085.31 1238.21 1468.48 1564.95>
VStem: 276 87<603.801 1063.29> 1328 97<636.287 1307.06>
AnchorPoint: "l;bl" 0 40 basechar 0
AnchorPoint: "l;o" 30 450 basechar 0
AnchorPoint: "l;hi" 0 1500 basechar 0
AnchorPoint: "l;t" 30 1150 basechar 0
AnchorPoint: "l;x" 30 850 basechar 0
AnchorPoint: "r;bl" 1605 40 basechar 0
AnchorPoint: "r;o" 1605 450 basechar 0
AnchorPoint: "r;hi" 1635 1500 basechar 0
AnchorPoint: "r;t" 1635 1150 basechar 0
AnchorPoint: "r;x" 1625 850 basechar 0
LayerCount: 3
Fore
SplineSet
40 1416 m 0
 40 1430 62 1450 93 1450 c 0
 116 1450 151 1447 169 1447 c 0
 225 1447 233 1452 271 1452 c 0
 295 1452 334 1434 341 1418 c 0
 349 1402 412 1341 469 1266 c 0
 679 992 1087 532 1215 392 c 0
 1273 328 1293 298 1307 298 c 0
 1326 298 1328 360 1328 426 c 2
 1328 665 l 2
 1328 978 1322 1042 1322 1085 c 2
 1322 1100 l 2
 1322 1387 1213 1357 1127 1384 c 0
 1098 1393 1085 1407 1085 1420 c 0
 1085 1437 1093 1451 1125 1451 c 0
 1150 1451 1297 1448 1319 1448 c 0
 1405 1448 1465 1453 1503 1453 c 0
 1548 1453 1565 1446 1565 1418 c 0
 1565 1396 1497 1380 1492 1377 c 0
 1474 1366 1425 1317 1425 1144 c 2
 1425 1066 l 2
 1425 778 1402 256 1402 54 c 0
 1402 39 1403 25 1403 12 c 0
 1403 -15 1399 -34 1375 -34 c 0
 1362 -34 1347 -27 1341 -20 c 0
 433 1030 404 1064 383 1064 c 0
 368 1064 363 1008 363 925 c 0
 363 594 346 361 346 262 c 0
 346 -9 547 95 547 27 c 0
 547 -5 537 -9 515 -9 c 0
 455 -9 474 -4 294 -4 c 0
 250 -4 194 -8 121 -8 c 0
 94 -8 76 -5 76 25 c 0
 76 79 178 12 227 180 c 0
 246 247 276 871 276 1021 c 0
 276 1254 216 1367 68 1384 c 0
 41 1387 40 1406 40 1416 c 0
EndSplineSet
Validated: 1
EndChar

StartChar: O
Encoding: 79 79 41
Width: 1746
VWidth: -5
Flags: W
PickledData: "(dp1
S'spacing_anchors_slanted'
p2
I00
s."
HStem: -60.4937 114.494<717.351 1123.21> 1404 96<613.747 1040.12>
VStem: 76 244.523<568.054 989.028> 1439.04 225.963<482.884 932.492>
AnchorPoint: "l;bl" 120 40 basechar 0
AnchorPoint: "l;o" 0 450 basechar 0
AnchorPoint: "l;hi" 120 1500 basechar 0
AnchorPoint: "l;t" 0 1150 basechar 0
AnchorPoint: "l;x" 0 850 basechar 0
AnchorPoint: "r;bl" 1626 40 basechar 0
AnchorPoint: "r;o" 1746 450 basechar 0
AnchorPoint: "r;hi" 1626 1500 basechar 0
AnchorPoint: "r;t" 1746 1150 basechar 0
AnchorPoint: "r;x" 1746 850 basechar 0
LayerCount: 3
Fore
SplineSet
76 734 m 0
 76 1108.428125 339.3375 1500 866 1500 c 0
 1414 1500 1665 1140 1665 783 c 0
 1665 205.456687669 1259.50358914 -60.493718234 864.380244347 -60.493718234 c 0
 469.430977457 -60.493718234 76 206.977254405 76 734 c 0
897 54 m 0
 1268.79236473 54 1439.0370777 347.450508911 1439.0370777 661.719438812 c 0
 1439.0370777 893.680292379 1346.29002097 1136.98274498 1173.38298385 1282 c 0
 1068.55069721 1369.92291337 933.364031172 1404 813 1404 c 0
 635.196303911 1404 320.522652147 1302.36857746 320.522652147 845.825656652 c 0
 320.522652147 433.332099654 592.794019342 54 897 54 c 0
EndSplineSet
Validated: 1
EndChar

StartChar: P
Encoding: 80 80 42
Width: 1156
Flags: W
PickledData: "(dp1
S'spacing_anchors_slanted'
p2
I00
s."
HStem: -13 82<55.2145 182.737> 653 62<473.077 733.331> 1375 82<419.798 690.694> 1395 62<40.4219 173.175>
VStem: 233 160<381.697 1347.19> 922 174<883.629 1162.97>
AnchorPoint: "l;bl" 0 40 basechar 0
AnchorPoint: "l;o" 0 450 basechar 0
AnchorPoint: "l;hi" 0 1500 basechar 0
AnchorPoint: "l;t" 0 1150 basechar 0
AnchorPoint: "l;x" 0 850 basechar 0
AnchorPoint: "r;bl" 946 40 basechar 0
AnchorPoint: "r;o" 1066 450 basechar 0
AnchorPoint: "r;hi" 1096 1500 basechar 0
AnchorPoint: "r;t" 1156 1150 basechar 0
AnchorPoint: "r;x" 1126 850 basechar 0
LayerCount: 3
Fore
SplineSet
40 1422 m 0xdc
 40 1439 56 1454 88 1454 c 0
 108 1454 102 1457 163 1457 c 0xdc
 185 1457 250 1451 286 1451 c 0
 374 1451 553 1457 625 1457 c 0
 859 1457 1096 1337 1096 1079 c 0
 1096 725 757 653 649 653 c 0
 564 653 448 679 448 701 c 0
 448 724 461 732 475 732 c 0
 504 732 526 715 579 715 c 0
 690 715 922 772 922 1002 c 0
 922 1162 786 1375 505 1375 c 0xec
 426 1375 397 1349 397 1165 c 0
 397 356 393 958 393 320 c 0
 393 179 430 114 477 84 c 0
 549 39 647 92 647 20 c 0
 647 -9 623 -14 601 -14 c 0
 520 -14 339 -5 308 -5 c 0
 256 -5 207 -13 116 -13 c 0
 93 -13 53 -11 53 11 c 0
 53 58 85 57 132 69 c 0
 161 77 170 62 202 159 c 0
 222 219 233 759 233 882 c 0
 233 1097 232 1177 232 1231 c 0
 232 1280 202 1395 82 1395 c 0
 60 1395 40 1402 40 1422 c 0xdc
EndSplineSet
Validated: 1
EndChar

StartChar: Q
Encoding: 81 81 43
Width: 1719
VWidth: -5
Flags: W
PickledData: "(dp1
S'spacing_anchors_slanted'
p2
I00
s."
HStem: -397 137<1500.22 1793.14> 20 38<496 918> 1396 82<612.471 1020.95>
VStem: 93 186<529.942 996.835> 226 85<-285.164 -53.5824> 1468 161<485.851 894.153>
AnchorPoint: "r;x" 1719 850 basechar 0
AnchorPoint: "r;t" 1719 1150 basechar 0
AnchorPoint: "r;hi" 1599 1500 basechar 0
AnchorPoint: "r;o" 1719 450 basechar 0
AnchorPoint: "r;bl" 1599 40 basechar 0
AnchorPoint: "l;x" 0 850 basechar 0
AnchorPoint: "l;t" 0 1150 basechar 0
AnchorPoint: "l;hi" 120 1500 basechar 0
AnchorPoint: "l;o" 0 450 basechar 0
AnchorPoint: "l;bl" 120 40 basechar 0
AnchorPoint: "l;lo" 150 -420 basechar 0
AnchorPoint: "r;k;lo" 1924 -420 basechar 0
LayerCount: 3
Fore
SplineSet
93 695 m 0xf4
 93 1128 312 1478 885 1478 c 0
 1482 1478 1629 974 1629 751 c 0
 1629 469 1471 116 1190 40 c 0
 1067 6 1044 2 1044 -7 c 0
 1044 -20 1059 -35 1084 -46 c 0
 1248 -119 1544 -260 1712 -260 c 0
 1847 -260 1845 -193 1902 -193 c 0
 1913 -193 1924 -212 1924 -218 c 0
 1924 -316 1743 -397 1567 -397 c 0
 1266 -397 652 20 496 20 c 0
 358 20 311 -99 311 -196 c 0
 311 -212 312 -221 312 -233 c 0
 312 -262 304 -286 274 -286 c 0
 248 -286 226 -244 226 -201 c 0xec
 226 -70 300 44 357 84 c 0
 380 100 401 112 401 120 c 0
 401 126 380 143 356 160 c 0
 181 284 93 479 93 695 c 0xf4
279 799 m 0xf4
 279 635 329 454 431 312 c 0
 546 152 784 58 918 58 c 0
 1034 58 1141 98 1212 135 c 0
 1302 182 1468 364 1468 615 c 0
 1468 1056 1176 1396 816 1396 c 0
 542 1396 279 1217 279 799 c 0xf4
EndSplineSet
Validated: 1
EndChar

StartChar: R
Encoding: 82 82 44
Width: 1471
VWidth: 2043
Flags: W
PickledData: "(dp1
S'spacing_anchors_slanted'
p2
I00
s."
HStem: -17 76<1313.83 1460.11> 683 76<418.781 671.848> 1380 79<430.327 717.28>
VStem: 242 170<113.453 682.998 765.175 1347.18> 920 171<929.003 1201.66>
AnchorPoint: "l;bl" 0 40 basechar 0
AnchorPoint: "l;o" 0 450 basechar 0
AnchorPoint: "l;hi" 0 1500 basechar 0
AnchorPoint: "l;t" 0 1150 basechar 0
AnchorPoint: "l;x" 0 850 basechar 0
AnchorPoint: "r;bl" 1471 40 basechar 0
AnchorPoint: "r;o" 1411 450 basechar 0
AnchorPoint: "r;hi" 1201 1500 basechar 0
AnchorPoint: "r;t" 1261 1150 basechar 0
AnchorPoint: "r;x" 1261 850 basechar 0
LayerCount: 3
Fore
SplineSet
40 1426 m 0
 40 1453 56 1459 100 1459 c 2
 440 1459 l 2
 528 1459 573 1464 645 1464 c 0
 879 1464 1091 1340 1091 1120 c 0
 1091 816 835 762 835 730 c 0
 835 697 1161 245 1244 156 c 0
 1253 146 1325 60 1431 59 c 0
 1443 59 1461 51 1461 35 c 0
 1461 0 1456 -17 1309 -17 c 0
 1302 -17 1206 -13 1133 30 c 0
 1025 94 870 351 765 522 c 0
 679 662 639 683 615 683 c 0
 603 683 583 682 571 682 c 0
 478 682 468 683 446 683 c 0
 415 683 412 681 412 536 c 0
 412 248 413 277 413 248 c 0
 413 0 665 86 665 18 c 0
 665 -2 657 -15 629 -15 c 0
 620 -15 356 -1 335 -1 c 0
 237 -1 133 -8 111 -8 c 0
 90 -8 67 -2 67 25 c 0
 67 96 239 5 239 231 c 0
 239 363 242 649 242 876 c 0
 242 1092 239 1166 239 1222 c 0
 239 1444 40 1362 40 1426 c 0
412 1098 m 2
 412 830 412 789 429 778 c 0
 455 761 477 760 516 760 c 2
 536 760 l 2
 555 760 575 759 596 759 c 0
 846 759 920 898 920 1044 c 0
 920 1185 816 1380 521 1380 c 0
 417 1380 412 1339 412 1155 c 2
 412 1098 l 2
EndSplineSet
Validated: 1
EndChar

StartChar: S
Encoding: 83 83 45
Width: 1221
VWidth: 0
Flags: W
PickledData: "(dp1
S'spacing_anchors_slanted'
p2
I00
s."
HStem: -27 91<423.518 820.293> 1395 84<413.114 775.116>
VStem: 120 62<341.246 425.965> 161 132<1029.27 1259.24> 970 131<232.158 494.419> 995 57<1075.04 1162.78>
AnchorPoint: "l;bl" 30 40 basechar 0
AnchorPoint: "l;o" 0 450 basechar 0
AnchorPoint: "l;hi" 60 1500 basechar 0
AnchorPoint: "l;t" 0 1150 basechar 0
AnchorPoint: "l;x" 0 850 basechar 0
AnchorPoint: "r;bl" 1161 40 basechar 0
AnchorPoint: "r;o" 1221 450 basechar 0
AnchorPoint: "r;hi" 1191 1500 basechar 0
AnchorPoint: "r;t" 1221 1150 basechar 0
AnchorPoint: "r;x" 1221 850 basechar 0
LayerCount: 3
Fore
SplineSet
120 383 m 0xe8
 120 414 135 426 150 426 c 0
 163 426 177 417 182 405 c 0
 234 281 335 64 630 64 c 0
 837 64 970 183 970 357 c 0xe8
 970 633 616 617 349 777 c 0
 232 847 161 938 161 1077 c 0
 161 1320 357 1479 636 1479 c 0
 768 1479 904 1412 932 1412 c 0
 944 1412 964 1427 979 1427 c 0
 991 1427 1008 1422 1010 1411 c 0
 1027 1316 1052 1160 1052 1132 c 0
 1052 1089 1038 1075 1025 1075 c 0
 1008 1075 1002 1085 995 1103 c 0
 943 1228 921 1244 861 1297 c 0
 785 1364 686 1395 591 1395 c 0
 429 1395 293 1311 293 1167 c 0xd4
 293 840 768 931 1020 660 c 0
 1070 606 1101 536 1101 441 c 0
 1101 147 884 -27 624 -27 c 0
 450 -27 349 -17 221 51 c 0
 177 75 120 365 120 383 c 0xe8
EndSplineSet
Validated: 1
EndChar

StartChar: T
Encoding: 84 84 46
Width: 1676
VWidth: 5
Flags: HMW
PickledData: "(dp1
S'spacing_anchors_slanted'
p2
I00
s."
HStem: -7 20G<483.5 537.5 915 959> 1348 106<255.887 631.907 801.846 1306.58> 1354 116<107.498 601.078 876.918 1302.29>
VStem: 40 107<1195.96 1334.84> 634 164<426.113 1346.67> 1344 55<1187.1 1289.42>
AnchorPoint: "r;s;AE" 1699 -150 basechar 0
AnchorPoint: "l;bl" -20 40 basechar 0
AnchorPoint: "l;o" -20 450 basechar 0
AnchorPoint: "l;hi" -200 1500 basechar 0
AnchorPoint: "l;t" -200 1150 basechar 0
AnchorPoint: "l;x" -20 850 basechar 0
AnchorPoint: "r;bl" 1759 40 basechar 0
AnchorPoint: "r;o" 1759 450 basechar 0
AnchorPoint: "r;hi" 1939 1500 basechar 0
AnchorPoint: "r;t" 1939 1150 basechar 0
AnchorPoint: "r;x" 1759 850 basechar 0
LayerCount: 3
Fore
SplineSet
70 1086 m 0
 70 1112 108 1361 108 1420 c 0
 108 1465 126 1472 186 1472 c 0
 311 1472 186 1458 810 1458 c 0
 1299 1458 1412 1472 1527 1472 c 0
 1561 1472 1568 1441 1568 1435 c 0
 1568 1343 1588 1226 1588 1188 c 0
 1588 1146 1584 1128 1563 1128 c 0
 1504.53881422 1128 1532.23373997 1293.66955734 1356 1325 c 0
 1327 1330 1267 1339 1207 1339 c 0
 1104 1339 1120 1340 1083 1340 c 0
 962 1340 949 1310 949 1116 c 2
 949 298 l 2
 949 220 954 164 1002 122 c 0
 1106 32 1236 94 1236 17 c 0
 1236 1 1227 -15 1180 -15 c 0
 1088 -15 913 13 821 13 c 0
 768 13 605 -17 540 -17 c 0
 497 -17 476 -7 476 18 c 0
 476 92 674 30 710 158 c 0
 727 219 731 358 731 497 c 0
 731 590 730 685 730 761 c 2
 730 1165 l 2
 730 1341 724 1341 628 1341 c 0
 592 1341 366 1323 293 1304 c 0
 115 1257 193 1043 110 1043 c 0
 78 1043 70 1060 70 1086 c 0
EndSplineSet
Validated: 1
EndChar

StartChar: U
Encoding: 85 85 47
Width: 1885
VWidth: 5
Flags: W
PickledData: "(dp1
S'spacing_anchors_slanted'
p2
I00
s."
HStem: -61 107<736.096 1213.65> 1382 94<539.828 698.579> 1401 78<15.0074 234.646>
VStem: 272 226<302.348 1348.52> 1508 102<461.145 1304.36>
AnchorPoint: "l;bl" -380 40 basechar 0
AnchorPoint: "l;o" -440 450 basechar 0
AnchorPoint: "l;hi" -500 1500 basechar 0
AnchorPoint: "l;t" -500 1150 basechar 0
AnchorPoint: "l;x" -500 850 basechar 0
AnchorPoint: "r;bl" 2149 40 basechar 0
AnchorPoint: "r;o" 2239 450 basechar 0
AnchorPoint: "r;hi" 2269 1500 basechar 0
AnchorPoint: "r;t" 2269 1150 basechar 0
AnchorPoint: "r;x" 2269 850 basechar 0
LayerCount: 3
Fore
SplineSet
1780 1440 m 0xd8
 1780 1349 1610 1477 1610 1203 c 2
 1610 901 l 2
 1610 492 1599 36 1080 -51 c 0
 1035 -58 982 -61 934 -61 c 0
 610 -61 467 26 400 96 c 0
 285 216 272 390 272 810 c 2
 272 895 l 2
 272 994 275 1098 275 1172 c 0
 275 1416 223 1376 60 1401 c 0
 17 1407 15 1430 15 1440 c 0
 15 1454 25 1479 72 1479 c 0xb8
 130 1479 154 1458 357 1458 c 0
 486 1458 521 1472 640 1476 c 0
 658 1476 700 1469 700 1438 c 0
 700 1383 621 1410 574 1382 c 0
 532 1358 498 1290 498 909 c 2
 498 672 l 2
 498 395 505 46 966 46 c 0
 1500 46 1508 512 1508 758 c 2
 1508 1080 l 2
 1508 1523 1223 1326 1223 1432 c 0
 1223 1455 1254 1474 1290 1474 c 0
 1315 1474 1494 1458 1516 1458 c 0
 1602 1458 1666 1482 1704 1482 c 0
 1768 1482 1780 1450 1780 1440 c 0xd8
EndSplineSet
Validated: 1
EndChar

StartChar: V
Encoding: 86 86 48
Width: 1652
VWidth: 0
Flags: HMW
PickledData: "(dp1
S'spacing_anchors_slanted'
p2
I00
s."
HStem: -62 21G<875.5 893> 1435 20G<88 121.5 1242.5 1273.5 1522 1583>
AnchorPoint: "l;bl" 380 40 basechar 0
AnchorPoint: "l;o" 250 450 basechar 0
AnchorPoint: "l;hi" 0 1500 basechar 0
AnchorPoint: "l;t" 50 1150 basechar 0
AnchorPoint: "l;x" 150 850 basechar 0
AnchorPoint: "r;bl" 1322 40 basechar 0
AnchorPoint: "r;o" 1452 450 basechar 0
AnchorPoint: "r;hi" 1652 1500 basechar 0
AnchorPoint: "r;t" 1602 1150 basechar 0
AnchorPoint: "r;x" 1532 850 basechar 0
LayerCount: 3
Fore
SplineSet
40 1426 m 0
 40 1453 77 1455 99 1455 c 0
 144 1455 189 1446 324 1446 c 0
 360 1446 414 1451 456 1451 c 0
 517 1451 524 1449 524 1428 c 0
 524 1398 441 1400 441 1332 c 0
 441 1245 506 1140 727 639 c 0
 795 484 904 244 931 244 c 0
 951 244 1367 1220 1367 1329 c 0
 1367 1425 1218 1385 1218 1434 c 0
 1218 1452 1224 1455 1261 1455 c 0
 1286 1455 1319 1452 1390 1452 c 0
 1467 1452 1472 1456 1572 1456 c 0
 1594 1456 1612 1452 1612 1428 c 0
 1612 1382 1535 1407 1480 1281 c 2
 1025 240 l 2
 893 -60 904 -62 882 -62 c 0
 869 -62 842 -50 790 80 c 0
 725 242 672 355 579 555 c 0
 288 1186 289 1252 232 1317 c 0
 130 1432 40 1354 40 1426 c 0
EndSplineSet
Validated: 1
EndChar

StartChar: W
Encoding: 87 87 49
Width: 2274
VWidth: 0
Flags: HMW
PickledData: "(dp1
S'spacing_anchors_slanted'
p2
I00
s."
HStem: -56 21G<842 874 1477.5 1503> 1392 63<662.027 823.949>
AnchorPoint: "r;x" 2154 850 basechar 0
AnchorPoint: "r;t" 2224 1150 basechar 0
AnchorPoint: "r;hi" 2274 1500 basechar 0
AnchorPoint: "r;o" 2074 450 basechar 0
AnchorPoint: "r;bl" 1944 40 basechar 0
AnchorPoint: "l;x" 142 850 basechar 0
AnchorPoint: "l;t" 42 1150 basechar 0
AnchorPoint: "l;hi" 0 1500 basechar 0
AnchorPoint: "l;o" 242 450 basechar 0
AnchorPoint: "l;bl" 372 40 basechar 0
LayerCount: 3
Fore
SplineSet
40 1423 m 0
 40 1450 74 1453 96 1453 c 0
 141 1453 186 1446 321 1446 c 0
 420 1446 471 1452 498 1452 c 0
 522 1452 526 1447 526 1428 c 0
 526 1396 438 1400 438 1332 c 0
 438 1269 509 1140 729 639 c 0
 797 484 888 259 908 259 c 0
 921 259 1019 483 1075 625 c 0
 1096 679 1117 697 1117 736 c 0
 1117 763 886 1292 835 1350 c 0
 794 1396 772 1389 744 1392 c 0
 662 1400 662 1407 662 1426 c 0
 662 1453 699 1455 721 1455 c 0
 766 1455 811 1446 946 1446 c 0
 965 1446 1031 1454 1082 1454 c 0
 1116 1454 1143 1451 1143 1438 c 0
 1143 1408 1055 1402 1055 1334 c 0
 1055 1289 1079 1239 1118 1151 c 0
 1136 1110 1196 945 1214 945 c 0
 1237 945 1362 1296 1362 1336 c 0
 1362 1421 1240 1391 1240 1434 c 0
 1240 1452 1255 1457 1284 1457 c 0
 1312 1457 1377 1453 1415 1453 c 2
 1450 1453 l 2
 1476 1453 1505 1454 1559 1458 c 0
 1565 1458 1571 1459 1577 1459 c 0
 1592 1459 1603 1455 1603 1438 c 0
 1603 1402 1543 1413 1511 1379 c 0
 1493 1360 1474 1330 1455 1284 c 0
 1273 849 1270 859 1270 818 c 0
 1270 807 1508 244 1543 244 c 0
 1576 244 1994 1262 1994 1329 c 0
 1994 1425 1843 1385 1843 1434 c 0
 1843 1452 1846 1455 1883 1455 c 0
 1908 1455 1941 1452 2012 1452 c 0
 2089 1452 2094 1456 2194 1456 c 0
 2216 1456 2234 1452 2234 1428 c 0
 2234 1395 2194 1399 2151 1356 c 0
 2116 1322 2104 1286 2070 1209 c 0
 1505 -56 1517 -56 1489 -56 c 0
 1466 -56 1414 82 1395 126 c 0
 1308 325 1191 616 1171 616 c 0
 1141 616 913 34 908 18 c 0
 888 -41 884 -62 864 -62 c 0
 820 -62 768 150 581 555 c 0
 431 880 369 1045 330 1142 c 0
 189 1494 40 1328 40 1423 c 0
EndSplineSet
Validated: 1
EndChar

StartChar: X
Encoding: 88 88 50
Width: 1538
VWidth: 0
Flags: HMW
PickledData: "(dp1
S'spacing_anchors_slanted'
p2
I00
s."
HStem: -3 84<1330.84 1493.2> -1 58<390.29 517.74> 1395 67<41.3818 186.86>
AnchorPoint: "l;bl" 0 40 basechar 0
AnchorPoint: "l;o" 60 450 basechar 0
AnchorPoint: "l;hi" 0 1500 basechar 0
AnchorPoint: "l;t" 60 1150 basechar 0
AnchorPoint: "l;x" 120 850 basechar 0
AnchorPoint: "r;bl" 1538 40 basechar 0
AnchorPoint: "r;o" 1478 450 basechar 0
AnchorPoint: "r;hi" 1538 1500 basechar 0
AnchorPoint: "r;t" 1478 1150 basechar 0
AnchorPoint: "r;x" 1418 850 basechar 0
LayerCount: 3
Fore
SplineSet
40 1436 m 0
 40 1458 50 1462 127 1462 c 0
 214 1462 190 1454 310 1454 c 0
 333 1454 508 1458 525 1458 c 0
 553 1458 569 1458 569 1439 c 0
 569 1382 478 1428 478 1360 c 0
 478 1317 552 1216 588 1162 c 0
 716 970 770 877 793 877 c 0
 808 877 817 890 839 922 c 0
 923 1044 1110 1294 1110 1342 c 0
 1110 1439 1001 1386 1001 1441 c 0
 1001 1458 1012 1462 1032 1462 c 0
 1121 1462 1127 1454 1198 1454 c 0
 1391 1454 1343 1462 1391 1462 c 0
 1407 1462 1423 1458 1423 1442 c 0
 1423 1396 1358 1415 1270 1354 c 0
 1235 1330 1205 1289 1162 1232 c 0
 1034 1063 843 810 843 802 c 0
 843 777 871 756 1102 420 c 0
 1169 322 1312 129 1369 81 c 0
 1387 65 1498 65 1498 27 c 0
 1498 11 1493 -3 1431 -3 c 0
 1366 -3 1235 12 1213 12 c 0
 1079 12 1029 0 1004 0 c 0
 987 0 976 4 976 27 c 0
 976 80 1081 43 1081 114 c 0
 1081 164 957 327 761 621 c 0
 748 641 734 656 728 656 c 0
 719 656 707 628 684 592 c 0
 552 387 382 204 382 112 c 0
 382 94 388 57 493 57 c 0
 508 57 518 49 518 22 c 0
 518 2 497 -1 454 -1 c 0
 418 -1 292 7 274 7 c 0
 237 7 152 -2 110 -2 c 0
 74 -2 52 0 52 36 c 0
 52 79 116 42 196 105 c 0
 298 186 423 370 529 519 c 0
 612 635 680 716 680 730 c 0
 680 748 609 829 401 1128 c 1
 335 1225 217 1374 122 1395 c 0
 95 1401 40 1402 40 1436 c 0
EndSplineSet
Validated: 1
EndChar

StartChar: Y
Encoding: 89 89 51
Width: 1665
VWidth: 5
Flags: WO
PickledData: "(dp1
S'spacing_anchors_slanted'
p2
I00
s."
HStem: -11 96<441.832 668.245> 1400 87<62.2255 236.443 922.197 1107.05 1335.06 1497.05>
VStem: 62 489<1312 1457> 684 215<114.013 687.625>
AnchorPoint: "r;s;AE" 1608 -150 basechar 0
AnchorPoint: "l;bl" 110 40 basechar 0
AnchorPoint: "l;o" 20 450 basechar 0
AnchorPoint: "l;hi" -200 1500 basechar 0
AnchorPoint: "l;t" -140 1150 basechar 0
AnchorPoint: "l;x" -40 850 basechar 0
AnchorPoint: "r;bl" 1668 40 basechar 0
AnchorPoint: "r;o" 1758 450 basechar 0
AnchorPoint: "r;hi" 1958 1500 basechar 0
AnchorPoint: "r;t" 1898 1150 basechar 0
AnchorPoint: "r;x" 1818 850 basechar 0
LayerCount: 3
Fore
SplineSet
690 1450 m 0
 690 1382 551 1441 551 1357 c 0
 551 1267 840 803 857 803 c 0
 886 803 935 909 1000 1006 c 0
 1072 1114 1131 1246 1131 1301 c 0
 1131 1384 1032 1404 971 1414 c 0
 940 1419 919 1435 919 1457 c 0
 919 1477 942 1488 978 1488 c 0
 1028 1488 1090 1472 1251 1472 c 0
 1332 1472 1394 1489 1455 1489 c 0
 1491 1489 1501 1475 1501 1463 c 0
 1501 1416 1454 1421 1402 1404 c 0
 1323 1378 1279 1298 1007 848 c 0
 931 722 899 679 899 620 c 2
 899 224 l 1
 902 9 1176 106 1176 34 c 0
 1176 7 1154 -6 1111 -6 c 0
 1032 -6 848 14 785 14 c 0
 651 14 588 -11 504 -11 c 0
 459 -11 439 6 439 25 c 0
 439 76 500 56 608 85 c 0
 640 93 684 111 684 191 c 2
 684 516 l 2
 684 641 642 694 368 1170 c 0
 246 1383 228 1382 116 1400 c 0
 97 1403 62 1419 62 1446 c 0
 62 1468 65 1487 117 1487 c 0
 147 1487 272 1467 372 1467 c 0
 515 1467 589 1487 647 1487 c 0
 664 1487 690 1480 690 1450 c 0
EndSplineSet
Validated: 1
EndChar

StartChar: Z
Encoding: 90 90 52
Width: 1153
VWidth: 0
Flags: HMW
PickledData: "(dp1
S'spacing_anchors_slanted'
p2
I00
s."
HStem: -2 92<304.077 964.726> 1345 99<221.995 803.974>
AnchorPoint: "l;bl" 0 40 basechar 0
AnchorPoint: "l;o" 0 450 basechar 0
AnchorPoint: "l;hi" 0 1500 basechar 0
AnchorPoint: "l;t" 0 1150 basechar 0
AnchorPoint: "l;x" 0 850 basechar 0
AnchorPoint: "r;bl" 1153 40 basechar 0
AnchorPoint: "r;o" 1153 450 basechar 0
AnchorPoint: "r;hi" 1153 1500 basechar 0
AnchorPoint: "r;t" 1153 1150 basechar 0
AnchorPoint: "r;x" 1123 850 basechar 0
LayerCount: 3
Fore
SplineSet
40 28 m 0
 40 54 103 119 196 284 c 0
 352 560 804 1270 804 1324 c 0
 804 1344 768 1345 717 1345 c 0
 530 1345 417 1340 342 1338 c 0
 149 1334 133 1142 98 1142 c 0
 88 1142 72 1149 72 1175 c 0
 72 1246 89 1277 89 1310 c 0
 89 1343 93 1354 99 1406 c 0
 103 1440 116 1450 156 1450 c 0
 200 1450 334 1444 598 1444 c 0
 840 1444 786 1446 966 1446 c 0
 1026 1446 1055 1440 1055 1416 c 0
 1055 1364 304 175 304 131 c 0
 304 90 409 90 540 90 c 0
 795 90 903 96 1005 154 c 0
 1063 187 1071 225 1095 225 c 0
 1098 225 1113 224 1113 203 c 0
 1113 172 1079 114 1048 64 c 0
 1026 28 1021 0 962 0 c 0
 742 0 762 -2 588 -2 c 0
 59 -2 249 -5 82 -5 c 0
 59 -5 40 0 40 28 c 0
EndSplineSet
Validated: 1
EndChar

StartChar: period
Encoding: 46 46 53
Width: 516
VWidth: 0
Flags: W
PickledData: "(dp1
S'spacing_anchors_slanted'
p2
I00
s."
HStem: -33 298<202.62 309.312>
VStem: 110 296<62.0024 166.45>
AnchorPoint: "l;bl" 0 40 basechar 0
AnchorPoint: "l;o" 55 450 basechar 0
AnchorPoint: "r;bl" 516 40 basechar 0
AnchorPoint: "r;o" 461 450 basechar 0
LayerCount: 3
Fore
SplineSet
110 113 m 0
 110 132 143 164 175 192 c 0
 202 216 221 265 260 265 c 0
 277 265 312 222 344 184 c 0
 362 163 406 132 406 112 c 0
 406 88 364 67 334 39 c 0
 309 15 284 -33 256 -33 c 0
 223 -33 202 22 175 42 c 0
 141 67 110 93 110 113 c 0
EndSplineSet
Validated: 1
EndChar

StartChar: comma
Encoding: 44 44 54
Width: 512
VWidth: 0
Flags: HMW
PickledData: "(dp1
S'spacing_anchors_slanted'
p2
I00
s."
VStem: 260 142<-163.574 9.63813>
AnchorPoint: "l;bl" 0 40 basechar 0
AnchorPoint: "l;lo" 20 -420 basechar 0
AnchorPoint: "l;o" 55 450 basechar 0
AnchorPoint: "r;bl" 512 40 basechar 0
AnchorPoint: "r;lo" 412 -420 basechar 0
AnchorPoint: "r;o" 452 450 basechar 0
LayerCount: 3
Fore
SplineSet
110 111 m 0
 110 139 145 160 175 190 c 0
 200 215 213 256 260 256 c 0
 271 256 402 177 402 -1 c 0
 402 -194 218 -340 163 -340 c 0
 148 -340 134 -330 134 -313 c 0
 134 -271 260 -240 260 -98 c 0
 260 -13 212 19 146 68 c 0
 112 93 110 91 110 111 c 0
EndSplineSet
Validated: 1
EndChar

StartChar: hyphen
Encoding: 45 45 55
Width: 696
VWidth: 0
Flags: HMW
PickledData: "(dp1
S'spacing_anchors_slanted'
p2
I00
s."
HStem: 254 295
AnchorPoint: "l;o" 0 450 basechar 0
AnchorPoint: "r;o" 696 450 basechar 0
LayerCount: 3
Fore
SplineSet
90 297 m 2
 90 319 l 2
 90 405 113 408 206 435 c 0
 469 513 515 549 561 549 c 0
 598 549 606 516 606 480 c 2
 606 466 l 2
 606 387 586 402 408 344 c 0
 221 283 173 254 123 254 c 0
 93 254 90 273 90 297 c 2
EndSplineSet
Validated: 1
EndChar

StartChar: colon
Encoding: 58 58 56
Width: 533
VWidth: 0
Flags: W
PickledData: "(dp1
S'spacing_anchors_slanted'
p2
I00
s."
VStem: 136 266<634.96 747.175>
AnchorPoint: "l;bl" 0 40 basechar 0
AnchorPoint: "l;o" 20 450 basechar 0
AnchorPoint: "l;x" 0 850 basechar 0
AnchorPoint: "r;bl" 533 40 basechar 0
AnchorPoint: "r;o" 513 450 basechar 0
AnchorPoint: "r;x" 533 850 basechar 0
LayerCount: 3
Fore
SplineSet
120 113 m 0
 120 132 161 164 193 192 c 0
 220 216 240 260 279 260 c 0
 296 260 320 222 352 184 c 0
 370 163 413 132 413 112 c 0
 413 88 372 67 342 39 c 0
 317 15 294 -33 266 -33 c 0
 233 -33 210 22 183 42 c 0
 149 67 120 93 120 113 c 0
136 688 m 0
 136 706 165 737 196 764 c 0
 222 787 237 831 274 831 c 0
 290 831 328 782 349 756 c 0
 366 735 402 715 402 687 c 0
 402 664 368 644 339 617 c 0
 315 594 299 548 266 548 c 0
 234 548 215 601 196 620 c 0
 167 649 136 669 136 688 c 0
EndSplineSet
Validated: 1
EndChar

StartChar: semicolon
Encoding: 59 59 57
Width: 537
VWidth: 0
Flags: W
PickledData: "(dp1
S'spacing_anchors_slanted'
p2
I00
s."
HStem: 560 285<205.122 311.902>
VStem: 120 276<651.01 753.956> 275 142<-160.467 8.46223>
AnchorPoint: "l;bl" 0 40 basechar 0
AnchorPoint: "l;lo" 20 -420 basechar 0
AnchorPoint: "l;o" 20 450 basechar 0
AnchorPoint: "l;x" 0 850 basechar 0
AnchorPoint: "r;bl" 537 40 basechar 0
AnchorPoint: "r;lo" 457 -420 basechar 0
AnchorPoint: "r;o" 517 450 basechar 0
AnchorPoint: "r;x" 537 850 basechar 0
LayerCount: 3
Fore
SplineSet
120 700 m 0xc0
 120 718 154 749 185 776 c 0
 211 799 219 845 263 845 c 0
 279 845 317 794 338 768 c 0
 355 747 396 725 396 697 c 0
 396 674 362 654 333 627 c 0
 309 604 288 560 255 560 c 0
 223 560 204 613 185 632 c 0
 156 661 120 681 120 700 c 0xc0
125 111 m 0
 125 139 160 160 190 190 c 0
 215 215 228 256 275 256 c 0
 286 256 417 177 417 -1 c 0
 417 -194 229 -345 174 -345 c 0
 165 -345 149 -330 149 -313 c 0
 149 -271 275 -240 275 -98 c 0xa0
 275 -21 227 19 161 68 c 0
 127 93 125 91 125 111 c 0
EndSplineSet
Validated: 1
EndChar

StartChar: exclam
Encoding: 33 33 58
Width: 566
VWidth: 0
Flags: W
PickledData: "(dp1
S'spacing_anchors_slanted'
p2
I00
s."
HStem: -26 298<228.866 344.381>
VStem: 200 195<816.675 1401.18>
AnchorPoint: "l;bl" 0 40 basechar 0
AnchorPoint: "l;o" 0 450 basechar 0
AnchorPoint: "l;hi" 0 1500 basechar 0
AnchorPoint: "l;t" 0 1150 basechar 0
AnchorPoint: "l;x" 0 850 basechar 0
AnchorPoint: "r;bl" 566 40 basechar 0
AnchorPoint: "r;o" 566 450 basechar 0
AnchorPoint: "r;hi" 566 1500 basechar 0
AnchorPoint: "r;t" 566 1150 basechar 0
AnchorPoint: "r;x" 566 850 basechar 0
LayerCount: 3
Fore
SplineSet
140 130 m 0
 140 149 167 166 199 194 c 0
 226 218 251 272 290 272 c 0
 308 272 320 255 338 236 c 0
 407 163 446 161 446 126 c 0
 446 91 390 68 368 46 c 0
 343 21 320 -26 292 -26 c 0
 273 -26 227 15 207 42 c 0
 189 66 140 93 140 130 c 0
200 1334 m 0
 200 1383 240 1412 302 1412 c 0
 361 1412 395 1399 395 1345 c 0
 395 1330 391 1315 385 1266 c 0
 360 1065 366 860 313 430 c 8
 311 416 305 408 285 408 c 0
 269 408 261 415 260 427 c 16
 208 1037 227 916 219 1038 c 0
 209 1181 200 1239 200 1334 c 0
EndSplineSet
Validated: 1
EndChar

StartChar: question
Encoding: 63 63 59
Width: 716
VWidth: 0
Flags: W
PickledData: "(dp1
S'spacing_anchors_slanted'
p2
I00
s."
HStem: -18 288<293.142 400.964> 1287 91<220.253 406.066>
VStem: 283 71<420.397 656.469> 471 171<991.567 1223.65>
AnchorPoint: "l;bl" 0 40 basechar 0
AnchorPoint: "l;o" 0 450 basechar 0
AnchorPoint: "l;hi" 0 1500 basechar 0
AnchorPoint: "l;t" 0 1150 basechar 0
AnchorPoint: "l;x" 0 850 basechar 0
AnchorPoint: "r;bl" 716 40 basechar 0
AnchorPoint: "r;o" 716 450 basechar 0
AnchorPoint: "r;hi" 716 1500 basechar 0
AnchorPoint: "r;t" 716 1150 basechar 0
AnchorPoint: "r;x" 716 850 basechar 0
LayerCount: 3
Fore
SplineSet
154 1254 m 0
 154 1292 245 1378 366 1378 c 0
 501 1378 642 1299 642 1144 c 0
 642 943 354 733 354 515 c 0
 354 477 365 441 365 420 c 0
 365 408 362 399 349 399 c 0
 303 399 283 517 283 562 c 0
 283 707 471 993 471 1122 c 0
 471 1243 336 1287 284 1287 c 0
 223 1287 189 1234 172 1234 c 0
 159 1234 154 1248 154 1254 c 0
199 121 m 0
 199 140 241 177 272 204 c 1
 298 228 324 270 353 270 c 0
 373 270 414 207 423 198 c 0
 431 189 494 147 494 126 c 0
 494 92 446 75 424 53 c 0
 399 28 376 -18 349 -18 c 0
 330 -18 286 23 266 49 c 0
 248 73 199 93 199 121 c 0
EndSplineSet
Validated: 1
EndChar

StartChar: ampersand
Encoding: 38 38 60
Width: 1939
VWidth: 0
Flags: W
PickledData: "(dp1
S'spacing_anchors_slanted'
p2
I00
s."
HStem: -46 139<589.868 1006.63> -39 90<1704.93 1910.99> 168 198<1230.37 1325.72> 750 58<1150.75 1279.3> 1366 75<564.477 806.883>
VStem: 120 136<403.518 695.973> 354 144<1092.81 1304.03> 1188 184<224 306>
AnchorPoint: "l;bl" 30 40 basechar 0
AnchorPoint: "l;o" 0 450 basechar 0
AnchorPoint: "l;hi" 150 1500 basechar 0
AnchorPoint: "l;t" 90 1150 basechar 0
AnchorPoint: "l;x" 30 850 basechar 0
AnchorPoint: "r;bl" 1939 40 basechar 0
AnchorPoint: "r;o" 1819 450 basechar 0
AnchorPoint: "r;hi" 1759 1500 basechar 0
AnchorPoint: "r;t" 1759 1150 basechar 0
AnchorPoint: "r;x" 1759 850 basechar 0
LayerCount: 3
Fore
SplineSet
120 496 m 0xbf
 120 588 155 701 203 760 c 0
 314 896 453 889 453 906 c 0
 453 931 354 992 354 1170 c 0
 354 1366 572 1441 740 1441 c 0
 862 1441 910 1394 946 1394 c 0
 963 1394 974 1400 992 1400 c 0
 1022 1400 1025 1376 1025 1353 c 0
 1025 1346 1032 1261 1032 1215 c 0
 1032 1134 1031 1130 1010 1130 c 0
 966 1130 868 1366 688 1366 c 0
 544 1366 498 1268 498 1209 c 0
 498 1101 670 927 834 765 c 0
 1047 555 1269 366 1293 366 c 0
 1317 366 1346 422 1346 538 c 0
 1346 700 1282 724 1228 750 c 0
 1190 768 1150 750 1150 786 c 0
 1150 806 1159 808 1202 808 c 0
 1325 808 1232 805 1508 805 c 0
 1534 805 1546 796 1546 779 c 0
 1546 736 1473 772 1464 664 c 0
 1460 610 1451 539 1446 502 c 0
 1434 411 1372 324 1372 306 c 0
 1372 280 1584 150 1740 72 c 0
 1781 52 1811 51 1829 51 c 0
 1856 51 1882 58 1903 58 c 0
 1920 58 1929 49 1929 38 c 0
 1929 -8 1837 -39 1731 -39 c 0x7f
 1449 -39 1292 168 1272 168 c 0
 1234 168 1128 -46 733 -46 c 0
 560 -46 120 10 120 496 c 0xbf
256 566 m 0
 256 388 429 93 844 93 c 0xbf
 1040 93 1188 206 1188 224 c 0
 1188 244 1004 354 708 648 c 0
 520 835 504 863 480 863 c 0
 407 863 256 750 256 566 c 0
EndSplineSet
Validated: 1
EndChar

StartChar: dollar
Encoding: 36 36 61
Width: 1091
VWidth: 0
Flags: HMW
PickledData: "(dp1
S'spacing_anchors_slanted'
p2
I00
s."
HStem: -25 80<381.985 515.776> 1335 84<517 640>
VStem: 179 120<973.898 1221.17> 526 74<260.077 654.993 876.111 1298.29> 876 123<224.11 523.483>
AnchorPoint: "l;bl" 0 40 basechar 0
AnchorPoint: "l;o" 0 450 basechar 0
AnchorPoint: "l;hi" 0 1500 basechar 0
AnchorPoint: "l;t" 0 1150 basechar 0
AnchorPoint: "l;x" 0 850 basechar 0
AnchorPoint: "r;bl" 1091 40 basechar 0
AnchorPoint: "r;o" 1091 450 basechar 0
AnchorPoint: "r;hi" 1091 1500 basechar 0
AnchorPoint: "r;t" 1091 1150 basechar 0
AnchorPoint: "r;x" 1091 850 basechar 0
LayerCount: 3
Fore
SplineSet
132 197 m 0
 132 201 139 339 179 339 c 0
 223 339 231 281 275 201 c 0
 318 124 422 55 499 55 c 0
 517 55 521 68 521 86 c 0
 521 344 526 423 526 663 c 0
 526 690 484 704 452 714 c 0
 328 754 179 833 179 1051 c 0
 179 1252 342 1397 517 1419 c 0
 534 1421 543 1425 543 1466 c 0
 543 1490 541 1500 541 1522 c 0
 541 1557 552 1569 585 1569 c 0
 627 1569 630 1557 630 1532 c 0
 630 1477 628 1449 628 1440 c 0
 628 1430 630 1422 638 1421 c 0
 873 1393 935 1259 935 1244 c 0
 935 1208 901 1113 875 1113 c 0
 860 1113 851 1125 847 1135 c 0
 807 1224 720 1335 640 1335 c 0
 622 1335 621 1312 621 1296 c 0
 621 994 611 1021 611 895 c 0
 611 853 612 844 636 837 c 0
 878 769 999 651 999 427 c 0
 999 139 788 25 641 -14 c 0
 602 -24 598 -21 598 -53 c 2
 598 -92 l 2
 598 -138 599 -177 599 -222 c 0
 599 -299 588 -308 553 -308 c 0
 514 -308 510 -287 510 -265 c 0
 510 -198 516 -112 516 -63 c 0
 516 -51 516 -25 504 -25 c 0
 370 -25 210 54 153 123 c 0
 132 148 132 171 132 197 c 0
299 1103 m 0
 299 983 381 911 514 877 c 0
 516 877 517 876 519 876 c 0
 535 876 536 898 536 911 c 0
 536 1089 538 1140 538 1312 c 0
 538 1327 530 1337 517 1337 c 0
 475 1337 299 1271 299 1103 c 0
600 81 m 0
 600 62 604 56 615 56 c 0
 628 56 876 82 876 378 c 0
 876 602 628 655 622 655 c 0
 612 655 608 646 608 627 c 0
 608 409 600 299 600 81 c 0
EndSplineSet
Validated: 1
EndChar

StartChar: one
Encoding: 49 49 62
Width: 696
VWidth: 0
Flags: W
PickledData: "(dp1
S'spacing_anchors_slanted'
p2
I00
s."
HStem: 790 66<436.613 599.845> 805 54<58.2226 222.42>
VStem: 256 148<92.1865 770.664>
AnchorPoint: "l;bl" 0 40 basechar 0
AnchorPoint: "l;o" 20 450 basechar 0
AnchorPoint: "l;x" 0 850 basechar 0
AnchorPoint: "r;bl" 696 40 basechar 0
AnchorPoint: "r;o" 676 450 basechar 0
AnchorPoint: "r;x" 696 850 basechar 0
LayerCount: 3
Fore
SplineSet
40 24 m 0xa0
 40 84 219 32 237 136 c 0
 252 221 256 278 256 347 c 0
 256 428 257 445 257 510 c 0
 257 552 259 586 259 615 c 0
 259 792 235 796 95 805 c 0
 75 806 58 812 58 836 c 0
 58 852 70 859 100 859 c 0x60
 147 859 131 845 337 845 c 0
 478 845 496 856 552 856 c 0
 587 856 600 837 600 826 c 0
 600 791 561 796 532 790 c 0
 457 775 409 805 409 596 c 0
 409 568 408 539 408 492 c 0
 408 440 404 345 404 258 c 2
 404 210 l 2
 404 178 405 148 412 124 c 0
 438 38 656 74 656 18 c 0
 656 -8 634 -8 598 -8 c 0
 535 -8 425 3 336 3 c 0
 250 3 154 -8 98 -8 c 0
 61 -8 40 -1 40 24 c 0xa0
EndSplineSet
Validated: 1
EndChar

StartChar: zero
Encoding: 48 48 63
Width: 1084
VWidth: 10
Flags: W
PickledData: "(dp1
S'spacing_anchors_slanted'
p2
I00
s."
HStem: -30 109<373.483 717.931> 771 103<359.222 714.679>
VStem: 80 114<245.785 607.665> 894 110<255.495 602.956>
AnchorPoint: "l;o" 0 450 basechar 0
AnchorPoint: "r;o" 1084 450 basechar 0
LayerCount: 3
Fore
SplineSet
80 435 m 0
 80 726 310 874 541 874 c 0
 772 874 1004 736 1004 421 c 0
 1004 195 853 -30 554 -30 c 0
 224 -30 80 205 80 435 c 0
194 424 m 0
 194 187 381 79 554 79 c 0
 730 79 894 214 894 439 c 0
 894 652 712 771 533 771 c 0
 361 771 194 662 194 424 c 0
EndSplineSet
Validated: 1
EndChar

StartChar: two
Encoding: 50 50 64
Width: 958
VWidth: 0
Flags: W
PickledData: "(dp1
S'spacing_anchors_slanted'
p2
I00
s."
HStem: -2 133<396.025 813.828> 803 65<326.147 524.656>
VStem: 162 136<593.163 747.9> 625 160<513.438 723.302>
AnchorPoint: "l;bl" 0 40 basechar 0
AnchorPoint: "l;o" 20 450 basechar 0
AnchorPoint: "l;x" 20 850 basechar 0
AnchorPoint: "r;bl" 958 40 basechar 0
AnchorPoint: "r;o" 958 450 basechar 0
AnchorPoint: "r;x" 918 850 basechar 0
LayerCount: 3
Fore
SplineSet
60 16 m 0
 60 44 103 44 182 92 c 0
 509 289 625 476 625 608 c 0
 625 738 495 803 420 803 c 0
 328 803 298 768 298 709 c 0
 298 666 331 616 331 588 c 0
 331 576 325 568 306 568 c 0
 239 568 162 606 162 642 c 0
 162 697 228 868 509 868 c 0
 660 868 785 797 785 648 c 0
 785 517 630 356 520 266 c 0
 473 228 396 162 396 148 c 0
 396 132 430 131 490 131 c 0
 660 131 727 140 781 157 c 0
 841 176 869 260 892 260 c 0
 911 260 918 253 918 237 c 0
 918 227 813 36 808 29 c 0
 787 0 783 -8 765 -8 c 0
 728 -8 728 -2 396 -2 c 0
 171 -2 171 -5 115 -5 c 0
 79 -5 60 0 60 16 c 0
EndSplineSet
Validated: 1
EndChar

StartChar: three
Encoding: 51 51 65
Width: 828
VWidth: 0
Flags: W
PickledData: "(dp1
S'spacing_anchors_slanted'
p2
I00
s."
HStem: -417 100<186.102 432.651> 770 98<240.183 447.802>
VStem: 512 147<544.413 705.763> 616 118<-93.6397 116.891>
AnchorPoint: "l;bl" 0 40 basechar 0
AnchorPoint: "l;k;lo" 0 -420 basechar 0
AnchorPoint: "l;o" 0 450 basechar 0
AnchorPoint: "l;x" 0 850 basechar 0
AnchorPoint: "r;bl" 828 40 basechar 0
AnchorPoint: "r;lo" 688 -420 basechar 0
AnchorPoint: "r;o" 808 450 basechar 0
AnchorPoint: "r;x" 808 850 basechar 0
LayerCount: 3
Fore
SplineSet
80 -279 m 0xd0
 80 -255 82 -213 116 -213 c 0
 142 -213 178 -317 331 -317 c 0
 502 -317 616 -144 616 -8 c 0xd0
 616 122 495 222 313 222 c 0
 271 222 225 211 219 211 c 0
 208 211 193 220 193 234 c 0
 193 264 209 244 354 346 c 0
 412 387 512 483 512 606 c 0
 512 687 429 770 324 770 c 0
 212 770 202 704 161 704 c 0
 142 704 140 712 140 725 c 0
 140 763 263 868 394 868 c 0
 504 868 659 830 659 678 c 0xe0
 659 504 433 378 433 351 c 0
 433 343 510 345 586 308 c 0
 660 272 734 198 734 86 c 0
 734 -128 519 -417 256 -417 c 0
 126 -417 82 -388 82 -344 c 0
 82 -318 80 -285 80 -279 c 0xd0
EndSplineSet
Validated: 1
EndChar

StartChar: four
Encoding: 52 52 66
Width: 1033
VWidth: 0
Flags: HMW
PickledData: "(dp1
S'spacing_anchors_slanted'
p2
I00
s."
HStem: 0 130<210.018 612.564 756.45 925.953> 834 20G<744.5 768.5>
VStem: 613 143<-350.501 -9.25 138.298 597.463> 625 157<317.005 606.989>
AnchorPoint: "l;bl" 0 40 basechar 0
AnchorPoint: "l;o" 100 450 basechar 0
AnchorPoint: "l;x" 200 850 basechar 0
AnchorPoint: "r;bl" 1033 40 basechar 0
AnchorPoint: "r;lo" 893 -420 basechar 0
AnchorPoint: "r;o" 1013 450 basechar 0
AnchorPoint: "r;x" 1013 850 basechar 0
LayerCount: 3
Fore
SplineSet
20 29 m 0xe0
 20 77 31 54 656 756 c 0
 683 787 730 854 759 854 c 0
 778 854 782 833 782 805 c 0xd0
 782 792 756 264 756 165 c 0
 756 150 758 138 792 138 c 0
 938 138 913 184 946 184 c 0
 953 184 973 181 973 157 c 0
 973 131 951 90 938 55 c 0
 928 30 920 -11 891 -11 c 0
 858 -11 808 -9 779 -9 c 0
 752 -9 750 -19 750 -47 c 0
 750 -111 756 -199 756 -264 c 0
 756 -275 758 -297 758 -317 c 0
 758 -358 741 -362 726 -366 c 0
 695 -374 666 -381 635 -381 c 0
 603 -381 596 -369 596 -352 c 0
 596 -319 613 -353 613 -32 c 0
 613 -14 610 0 594 0 c 0
 530 0 419 -4 289 -4 c 0
 205 -4 141 -3 78 -3 c 0
 37 -3 20 -2 20 29 c 0xe0
210 156 m 0
 210 135 234 132 288 132 c 2
 364 132 l 2
 412 132 476 130 527 130 c 0
 598 130 618 132 618 150 c 2
 618 150 625 440 625 557 c 0
 625 592 622 607 614 607 c 0
 598 607 479 472 469 460 c 0
 370 337 210 180 210 156 c 0
EndSplineSet
Validated: 1
EndChar

StartChar: five
Encoding: 53 53 67
Width: 700
VWidth: 0
Flags: W
PickledData: "(dp1
S'spacing_anchors_slanted'
p2
I00
s."
HStem: -420 88<33.1454 254.334> 705 141<205.849 594.063>
VStem: 80 104<438 594.754> 449 133<-62.5801 274.849>
AnchorPoint: "l;bl" 0 40 basechar 0
AnchorPoint: "l;k;lo" -140 -420 basechar 0
AnchorPoint: "l;o" 0 450 basechar 0
AnchorPoint: "l;x" 0 850 basechar 0
AnchorPoint: "r;bl" 700 40 basechar 0
AnchorPoint: "r;lo" 580 -420 basechar 0
AnchorPoint: "r;o" 700 450 basechar 0
AnchorPoint: "r;x" 700 850 basechar 0
LayerCount: 3
Fore
SplineSet
-97 -260 m 0
 -97 -234 -97 -203 -71 -203 c 0
 -24 -203 10 -332 173 -332 c 0
 324 -332 449 -115 449 88 c 0
 449 204 431 280 318 359 c 0
 183 453 80 406 80 470 c 0
 80 520 104 509 193 797 c 0
 201 824 210 846 255 846 c 0
 274 846 349 842 408 842 c 2
 417 842 l 2
 573 842 557 845 578 870 c 0
 604 901 616 925 632 925 c 0
 644 925 660 922 660 904 c 0
 660 898 658 889 653 878 c 0
 570 707 598 706 547 705 c 0
 220 702 222 700 215 684 c 0
 196 640 184 601 184 592 c 0
 184 540 367 557 493 422 c 0
 512 401 582 301 582 172 c 0
 582 3 526 -95 487 -160 c 0
 349 -391 150 -420 49 -420 c 0
 6 -420 -17 -415 -68 -386 c 0
 -89 -374 -97 -269 -97 -260 c 0
EndSplineSet
Validated: 1
EndChar

StartChar: six
Encoding: 54 54 68
Width: 1018
VWidth: 0
Flags: W
PickledData: "(dp1
S'spacing_anchors_slanted'
p2
I00
s."
HStem: -40 64<445.871 655.114> 783 87<374.617 595.621> 1367 54<741.327 872.993>
VStem: 90 165<250.694 749.263> 794 134<205.904 547.978>
AnchorPoint: "l;bl" 40 40 basechar 0
AnchorPoint: "l;o" 0 450 basechar 0
AnchorPoint: "l;hi" 160 1500 basechar 0
AnchorPoint: "l;t" 40 1150 basechar 0
AnchorPoint: "l;x" 0 850 basechar 0
AnchorPoint: "r;bl" 978 40 basechar 0
AnchorPoint: "r;o" 1018 450 basechar 0
AnchorPoint: "r;hi" 1018 1500 basechar 0
AnchorPoint: "r;t" 998 1150 basechar 0
AnchorPoint: "r;x" 978 850 basechar 0
LayerCount: 3
Fore
SplineSet
90 522 m 0
 90 855 315 1152 540 1307 c 0
 648 1382 786 1421 841 1421 c 0
 864 1421 873 1408 873 1394 c 0
 873 1381 865 1369 851 1367 c 0
 724 1350 655 1305 548 1214 c 0
 345 1041 280 779 280 768 c 0
 280 763 282 760 286 760 c 0
 303 760 369 870 540 870 c 0
 780 870 928 694 928 426 c 0
 928 181 782 -40 522 -40 c 0
 390 -40 294 23 211 108 c 0
 118 204 90 353 90 522 c 0
255 534 m 0
 255 140 440 24 552 24 c 0
 656 24 794 125 794 346 c 0
 794 478 705 783 455 783 c 0
 413 783 378 778 296 718 c 0
 277 704 255 698 255 534 c 0
EndSplineSet
Validated: 1
EndChar

StartChar: seven
Encoding: 55 55 69
Width: 1027
VWidth: 0
Flags: W
PickledData: "(dp1
S'spacing_anchors_slanted'
p2
I00
s."
HStem: 708 136<206.538 810.969> 849 20G<949 972>
VStem: 109 46<581.161 641.999>
AnchorPoint: "l;bl" 0 40 basechar 0
AnchorPoint: "l;k;lo" 0 -420 basechar 0
AnchorPoint: "l;o" 0 450 basechar 0
AnchorPoint: "l;x" 0 850 basechar 0
AnchorPoint: "r;bl" 887 40 basechar 0
AnchorPoint: "r;lo" 747 -420 basechar 0
AnchorPoint: "r;o" 987 450 basechar 0
AnchorPoint: "r;x" 1027 850 basechar 0
LayerCount: 3
Fore
SplineSet
48 -359 m 0
 48 -300 811 638 811 686 c 0
 811 701 769 708 687 708 c 2
 526 708 l 2
 381 708 177 706 155 600 c 0
 153 591 141 581 130 581 c 0
 119 581 109 590 109 599 c 0
 109 657 140 755 143 816 c 0
 145 842 215 844 233 844 c 0
 358 844 482 836 633 836 c 0
 976 836 934 869 964 869 c 0
 980 869 987 856 987 845 c 0
 987 824 960 785 919 724 c 2
 373 -82 l 2
 198 -339 243 -384 198 -384 c 0
 178 -384 143 -381 93 -381 c 0
 69 -381 48 -377 48 -359 c 0
EndSplineSet
Validated: 1
EndChar

StartChar: eight
Encoding: 56 56 70
Width: 1024
VWidth: 0
Flags: W
PickledData: "(dp1
S'spacing_anchors_slanted'
p2
I00
s."
HStem: -45 63<366.644 652.747> 680 123<455.095 565.509> 1343 64<379.073 633.249>
VStem: 80 90<189.835 532.287> 120 120<981.768 1220.35> 787 76<936.368 1198.94> 816 128<181.581 443.939>
AnchorPoint: "l;bl" 0 40 basechar 0
AnchorPoint: "l;o" 0 450 basechar 0
AnchorPoint: "l;hi" 40 1500 basechar 0
AnchorPoint: "l;t" 0 1150 basechar 0
AnchorPoint: "l;x" 0 850 basechar 0
AnchorPoint: "r;bl" 1004 40 basechar 0
AnchorPoint: "r;o" 1024 450 basechar 0
AnchorPoint: "r;hi" 984 1500 basechar 0
AnchorPoint: "r;t" 1024 1150 basechar 0
AnchorPoint: "r;x" 1024 850 basechar 0
LayerCount: 3
Fore
SplineSet
80 366 m 0xf2
 80 656 350 697 350 717 c 0
 350 737 120 818 120 1044 c 0
 120 1254 280 1407 491 1407 c 0
 736 1407 863 1263 863 1074 c 0xec
 863 834 670 779 670 760 c 0
 670 730 944 655 944 384 c 0
 944 190 826 -45 524 -45 c 0
 426 -45 342 -31 274 7 c 0
 150 78 80 213 80 366 c 0xf2
170 368 m 0xf2
 170 162 317 18 512 18 c 0
 734 18 816 189 816 310 c 0
 816 510 525 680 464 680 c 0
 430 680 170 643 170 368 c 0xf2
240 1094 m 0xec
 240 930 522 803 582 803 c 0
 628 803 787 893 787 1080 c 0
 787 1163 701 1343 505 1343 c 0
 386 1343 240 1259 240 1094 c 0xec
EndSplineSet
Validated: 1
EndChar

StartChar: nine
Encoding: 57 57 71
Width: 996
VWidth: 0
Flags: W
PickledData: "(dp1
S'spacing_anchors_slanted'
p2
I00
s."
HStem: -420 63<194.156 370.309> 56 13<539 697> 790 74<339.472 570.991>
VStem: 80 144<291.081 593.941> 765 151<160.362 572.34>
AnchorPoint: "l;bl" 40 40 basechar 0
AnchorPoint: "l;lo" 80 -420 basechar 0
AnchorPoint: "l;o" 0 450 basechar 0
AnchorPoint: "l;x" 80 850 basechar 0
AnchorPoint: "r;bl" 996 40 basechar 0
AnchorPoint: "r;lo" 876 -420 basechar 0
AnchorPoint: "r;o" 996 450 basechar 0
AnchorPoint: "r;x" 896 850 basechar 0
LayerCount: 3
Fore
SplineSet
80 388 m 0
 80 604 228 864 500 864 c 0
 770 864 916 631 916 356 c 0
 916 116 806 -156 549 -333 c 0
 441 -408 289 -420 234 -420 c 0
 215 -420 194 -418 194 -384 c 0
 194 -359 218 -357 247 -357 c 0
 299 -357 399 -333 516 -234 c 0
 628 -138 700 5 700 51 c 0
 700 55 699 56 697 56 c 0
 683 56 634 -22 465 -22 c 0
 201 -22 80 178 80 388 c 0
224 492 m 0
 224 300 355 69 539 69 c 0
 617 69 765 101 765 342 c 0
 765 624 600 790 450 790 c 0
 340 790 224 692 224 492 c 0
EndSplineSet
Validated: 1
EndChar

StartChar: quotesingle
Encoding: 39 39 72
Width: 540
VWidth: 0
Flags: W
PickledData: "(dp1
S'spacing_anchors_slanted'
p2
I01
s."
HStem: 874 587<167 251>
VStem: 255 135<1038.69 1314.5>
AnchorPoint: "r;hi" 540 1500 basechar 0
AnchorPoint: "l;x" 0 850 basechar 0
AnchorPoint: "l;t" 0 1150 basechar 0
AnchorPoint: "r;o" 360 450 basechar 0
AnchorPoint: "r;t" 540 1150 basechar 0
AnchorPoint: "l;o" 60 450 basechar 0
AnchorPoint: "l;hi" 0 1500 basechar 0
AnchorPoint: "r;x" 480 850 basechar 0
LayerCount: 3
Fore
SplineSet
115 1329 m 0
 115 1345 141 1368 170 1397 c 0
 194 1421 215 1461 251 1461 c 0
 267 1461 390 1398 390 1231 c 0
 390 982 207 874 167 874 c 0
 150 874 141 893 141 900 c 0
 141 939 255 954 255 1107 c 0
 255 1270 115 1255 115 1329 c 0
EndSplineSet
Validated: 1
EndChar

StartChar: quotedbl
Encoding: 34 34 73
Width: 940
VWidth: 0
Flags: W
PickledData: "(dp1
S'spacing_anchors_slanted'
p2
I01
s."
HStem: 874 587<167 251 567 651>
VStem: 255 135<1038.69 1314.5> 655 135<1038.69 1314.5>
AnchorPoint: "r;hi" 940 1500 basechar 0
AnchorPoint: "l;x" 0 850 basechar 0
AnchorPoint: "l;t" 0 1150 basechar 0
AnchorPoint: "r;o" 760 450 basechar 0
AnchorPoint: "r;t" 940 1150 basechar 0
AnchorPoint: "l;o" 60 450 basechar 0
AnchorPoint: "l;hi" 0 1500 basechar 0
AnchorPoint: "r;x" 880 850 basechar 0
LayerCount: 3
Fore
SplineSet
115 1329 m 0
 115 1345 141 1368 170 1397 c 0
 194 1421 215 1461 251 1461 c 0
 267 1461 390 1398 390 1231 c 0
 390 982 207 874 167 874 c 0
 150 874 141 893 141 900 c 0
 141 939 255 954 255 1107 c 0
 255 1270 115 1255 115 1329 c 0
515 1329 m 0
 515 1345 541 1368 570 1397 c 0
 594 1421 615 1461 651 1461 c 0
 667 1461 790 1398 790 1231 c 0
 790 982 607 874 567 874 c 0
 550 874 541 893 541 900 c 0
 541 939 655 954 655 1107 c 0
 655 1270 515 1255 515 1329 c 0
EndSplineSet
Validated: 1
EndChar

